<?xml version="1.0" encoding="utf-8"?>
<svg fill="#000000" width="800px" height="800px" viewBox="0 0 32 32" xmlns="http://www.w3.org/2000/svg">
  <path fill="rgb(255,0,0)" stroke="rgb(255,0,0)" stroke-width="0" opacity="0.9921568627450981" d="M 8.237 3.916 C 8.587 3.869 8.963 3.972 9.254 4.095 C 9.524 4.21 9.753 4.376 9.942 4.604 C 10.149 4.853 10.328 5.136 10.421 5.561 C 10.546 6.141 10.335 7.175 10.421 7.893 C 10.499 8.552 10.581 9.317 10.869 9.718 C 11.105 10.046 11.614 9.996 11.856 10.286 C 12.117 10.598 12.007 11.323 12.335 11.572 C 12.688 11.84 13.486 11.571 13.979 11.751 C 14.46 11.926 15.011 12.395 15.265 12.618 C 15.417 12.751 15.39 12.866 15.535 12.947 C 15.732 13.059 16.039 13.16 16.432 13.127 C 17.02 13.077 18.067 12.774 18.824 12.349 C 19.638 11.893 20.614 10.924 21.127 10.405 C 21.471 10.058 21.518 9.81 21.815 9.538 C 22.155 9.227 22.867 8.879 23.101 8.671 C 23.229 8.557 23.194 8.493 23.31 8.402 C 23.485 8.265 23.816 8.066 24.148 7.983 C 24.535 7.886 25.081 7.809 25.523 7.923 C 25.99 8.043 26.586 8.427 26.869 8.731 C 27.091 8.969 27.165 9.216 27.228 9.508 C 27.294 9.816 27.303 10.226 27.237 10.546 C 27.396 10.92 27.481 11.38 27.433 11.734 C 27.373 12.179 26.994 12.695 26.745 12.961 C 26.557 13.162 26.388 13.239 26.147 13.32 C 25.884 13.407 25.507 13.464 25.196 13.444 C 25.196 13.506 25.197 13.569 25.194 13.635 C 25.183 13.888 25.266 14.167 25.254 14.413 C 25.243 14.644 25.15 14.809 25.135 15.071 C 25.115 15.402 25.099 15.853 25.194 16.267 C 25.301 16.727 25.704 17.283 25.793 17.703 C 25.864 18.039 25.853 18.27 25.793 18.6 C 25.72 18.994 25.582 19.457 25.314 19.916 C 24.987 20.474 24.454 21.177 23.849 21.68 C 23.204 22.215 22.325 22.637 21.516 22.996 C 20.71 23.354 19.546 23.531 19.004 23.833 C 18.647 24.033 18.422 24.172 18.316 24.461 C 18.193 24.794 18.536 25.348 18.436 25.777 C 18.328 26.237 17.997 26.771 17.628 27.123 C 17.253 27.481 16.795 27.7 16.193 27.901 C 15.433 28.153 14.044 28.184 13.321 28.379 C 12.8 28.52 12.568 28.766 12.125 28.858 C 11.64 28.959 11.02 29.039 10.51 28.918 C 9.993 28.794 9.358 28.492 9.045 28.11 C 8.75 27.751 8.581 27.206 8.626 26.734 C 8.676 26.221 9.112 25.502 9.434 25.149 C 9.69 24.869 10.137 24.888 10.301 24.641 C 10.462 24.397 10.29 23.986 10.421 23.684 C 10.563 23.355 10.814 23.095 11.168 22.757 C 11.646 22.301 13.186 21.467 13.172 21.232 C 13.162 21.066 12.451 21.258 12.125 21.142 C 11.791 21.023 11.489 20.771 11.198 20.514 C 10.888 20.239 10.699 19.904 10.331 19.527 C 9.855 19.039 8.946 18.563 8.507 17.822 C 8.022 17.005 8.155 15.371 7.669 14.742 C 7.294 14.256 6.547 14.336 6.174 13.994 C 5.826 13.676 5.593 13.196 5.456 12.798 C 5.332 12.438 5.25 12.171 5.336 11.721 C 5.463 11.06 6.47 9.668 6.533 9.149 C 6.566 8.877 6.392 8.897 6.353 8.611 C 6.28 8.072 6.193 6.593 6.353 5.86 C 6.481 5.274 6.709 4.78 7.041 4.454 C 7.351 4.15 7.852 3.967 8.237 3.916 Z" style="fill: rgb(227, 90, 62); fill-opacity: 1; fill-rule: nonzero; stroke: none; stroke-dasharray: none; stroke-dashoffset: 0px; stroke-linecap: butt; stroke-linejoin: miter; stroke-miterlimit: 4; stroke-opacity: 1; stroke-width: 2px; paint-order: normal; vector-effect: none; opacity: 1; mix-blend-mode: normal; isolation: auto;"/>
  <path stroke="rgb(255,0,0)" stroke-width="0" opacity="0.984313725490196" d="M 15.877 3.623 C 16.217 3.553 16.633 3.587 16.954 3.683 C 17.257 3.774 17.538 3.908 17.762 4.161 C 18.025 4.46 18.237 4.946 18.36 5.447 C 18.502 6.028 18.527 7.04 18.479 7.481 C 18.451 7.746 18.291 7.833 18.3 8.019 C 18.31 8.22 18.482 8.538 18.569 8.647 C 18.62 8.711 18.66 8.673 18.719 8.737 C 18.828 8.857 19.038 9.168 19.137 9.455 C 19.252 9.789 19.319 10.32 19.317 10.651 C 19.315 10.913 19.207 11.089 19.197 11.309 C 19.187 11.528 19.327 11.705 19.257 11.967 C 19.155 12.346 18.698 13.096 18.39 13.373 C 18.161 13.577 17.932 13.621 17.672 13.672 C 17.396 13.726 17.09 13.771 16.775 13.672 C 16.39 13.55 15.822 13.137 15.548 12.864 C 15.341 12.657 15.38 12.45 15.16 12.236 C 14.85 11.936 14.008 11.671 13.694 11.309 C 13.433 11.007 13.356 10.654 13.276 10.292 C 13.192 9.918 13.101 9.507 13.216 9.096 C 13.35 8.615 13.962 8.054 14.173 7.601 C 14.344 7.232 14.445 6.957 14.472 6.584 C 14.502 6.168 14.212 5.628 14.292 5.208 C 14.37 4.803 14.642 4.368 14.92 4.102 C 15.18 3.853 15.539 3.693 15.877 3.623 Z" style="fill-opacity: 1; fill-rule: nonzero; stroke: none; stroke-dasharray: none; stroke-dashoffset: 0px; stroke-linecap: butt; stroke-linejoin: miter; stroke-miterlimit: 4; stroke-opacity: 1; stroke-width: 2px; paint-order: normal; vector-effect: none; opacity: 1; mix-blend-mode: normal; isolation: auto; fill: rgb(244, 214, 121);"/>
  <path d="M 9.84375 1.664063 L 8.683594 2.050781 C 7.058594 2.59375 5.976563 3.308594 5.34375 4.199219 C 4.707031 5.089844 4.605469 6.121094 4.769531 6.945313 C 4.917969 7.691406 5.257813 8.28125 5.570313 8.757813 C 5.285156 8.925781 5.21875 8.867188 4.917969 9.167969 C 4.105469 9.980469 3.445313 11.5 4.050781 13.316406 C 4.507813 14.691406 5.570313 15.433594 6.429688 15.738281 C 6.671875 15.824219 6.675781 15.773438 6.890625 15.8125 C 6.828125 16.160156 6.757813 16.203125 6.765625 16.6875 C 6.785156 17.800781 7.179688 19.308594 8.582031 20.214844 C 9.320313 20.691406 10.144531 20.933594 10.953125 21.0625 L 5.417969 28.441406 L 6.628906 28.925781 C 12.097656 31.117188 18.316406 28.949219 18.316406 28.949219 L 19 28.71875 L 19 24.871094 C 19.773438 24.757813 20.859375 24.546875 22.199219 23.984375 C 24.316406 23.097656 26.707031 21.285156 26.996094 18.089844 C 27.109375 16.851563 26.820313 15.546875 26.53125 14.488281 C 26.457031 14.210938 26.449219 14.234375 26.375 14 L 29.660156 14 L 28.882813 12.53125 C 28.882813 12.53125 28.359375 11.503906 28.085938 10.941406 C 28.867188 9.199219 28.300781 7.300781 26.859375 6.5 C 26.460938 6.277344 26.011719 6.140625 25.535156 6.101563 C 24.117188 5.980469 22.476563 6.703125 21.203125 8.398438 C 21.074219 8.570313 20.539063 9.203125 20.234375 9.570313 C 20.140625 9.386719 20.039063 9.160156 19.925781 8.878906 C 19.480469 7.757813 19 5.890625 19 3 L 19 2 L 18 2 C 16.832031 2 15.890625 2.304688 15.21875 2.84375 C 14.546875 3.382813 14.191406 4.105469 14.03125 4.757813 C 13.804688 5.652344 13.953125 6.027344 14.03125 6.464844 C 13.679688 6.625 13.429688 6.65625 12.917969 7.167969 C 12.613281 7.472656 12.332031 7.875 12.128906 8.351563 C 11.105469 6.90625 10.269531 5.101563 9.992188 2.875 Z M 17.105469 4.238281 C 17.230469 6.609375 17.605469 8.457031 18.074219 9.621094 C 18.355469 10.324219 18.660156 10.84375 18.898438 11.191406 C 18.207031 12.015625 18.019531 12.25 17.484375 12.875 C 16.773438 12.53125 15.339844 11.730469 13.875 10.351563 C 13.660156 9.425781 13.941406 8.972656 14.332031 8.582031 C 14.769531 8.144531 15.316406 7.949219 15.316406 7.949219 L 16.195313 7.65625 L 15.96875 6.757813 C 15.96875 6.757813 15.796875 5.9375 15.96875 5.242188 C 16.058594 4.894531 16.203125 4.617188 16.46875 4.40625 C 16.578125 4.316406 16.917969 4.308594 17.105469 4.238281 Z M 8.34375 4.539063 C 9.011719 7.414063 10.480469 9.613281 12.03125 11.234375 C 12.039063 11.261719 12.042969 11.289063 12.050781 11.316406 L 12.09375 11.300781 C 13.859375 13.128906 15.667969 14.179688 16.585938 14.648438 L 17.761719 15.648438 C 17.761719 15.648438 21.835938 10.878906 22.796875 9.601563 L 22.800781 9.601563 C 24.101563 7.867188 25.246094 7.894531 25.890625 8.25 C 26.53125 8.605469 26.910156 9.328125 26.167969 10.445313 L 25.871094 10.890625 L 26.078125 11.382813 C 26.160156 11.585938 26.25 11.726563 26.386719 12 L 23.53125 12 L 24.066406 13.363281 C 24.066406 13.363281 24.34375 14.070313 24.605469 15.015625 C 24.863281 15.960938 25.074219 17.15625 25.003906 17.910156 C 24.792969 20.214844 23.183594 21.402344 21.425781 22.140625 C 19.667969 22.878906 17.933594 23 17.933594 23 L 17 23.0625 L 17 27.1875 C 16.136719 27.4375 12.515625 28.300781 8.726563 27.363281 L 13.375 21.171875 C 14.410156 21.121094 15.1875 20.984375 15.1875 20.984375 L 14.8125 19.015625 C 14.8125 19.015625 13.949219 19.183594 12.832031 19.191406 C 11.71875 19.203125 10.410156 19.015625 9.667969 18.535156 C 8.945313 18.066406 8.777344 17.386719 8.765625 16.65625 C 8.753906 15.921875 8.949219 15.316406 8.949219 15.316406 L 9.414063 13.921875 L 7.945313 14 C 7.945313 14 7.5625 14.019531 7.101563 13.855469 C 6.636719 13.6875 6.199219 13.429688 5.949219 12.683594 C 5.554688 11.5 5.894531 11.019531 6.332031 10.582031 C 6.769531 10.144531 7.316406 9.949219 7.316406 9.949219 L 8.851563 9.4375 L 7.707031 8.292969 C 7.707031 8.292969 6.898438 7.402344 6.730469 6.554688 C 6.644531 6.128906 6.667969 5.785156 6.96875 5.363281 C 7.148438 5.117188 7.847656 4.824219 8.34375 4.539063 Z"/>
</svg>