<?xml version="1.0" encoding="utf-8"?>
<svg width="800px" height="800px" viewBox="0 0 24 24" fill="none" xmlns="http://www.w3.org/2000/svg">
  <ellipse style="fill: rgb(244, 214, 121);" cx="12.026" cy="14.11" rx="7.856" ry="9.414"/>
  <path d="M 22.653 12.034 C 22.628 10.004 22.023 8.023 20.911 6.325 C 19.798 4.627 18.223 3.282 16.372 2.45 C 14.519 1.616 12.469 1.33 10.459 1.624 C 8.451 1.917 6.568 2.779 5.032 4.107 C 3.496 5.435 2.372 7.175 1.792 9.12 C 1.212 11.066 1.199 13.136 1.757 15.088 C 2.314 17.041 3.418 18.793 4.937 20.139 C 6.458 21.486 8.33 22.37 10.335 22.687 L 10.335 15.136 L 7.672 15.136 L 7.672 12.034 L 10.335 12.034 L 10.335 9.677 C 10.274 9.128 10.333 8.574 10.51 8.051 C 10.686 7.529 10.975 7.051 11.355 6.653 C 11.736 6.253 12.201 5.943 12.715 5.743 C 13.229 5.543 13.78 5.459 14.33 5.495 C 15.129 5.506 15.925 5.578 16.714 5.708 L 16.714 8.372 L 15.382 8.372 C 15.153 8.342 14.919 8.366 14.7 8.44 C 14.481 8.513 14.28 8.634 14.114 8.795 C 13.948 8.956 13.82 9.152 13.74 9.369 C 13.659 9.587 13.63 9.819 13.651 10.05 L 13.651 12.06 L 16.607 12.06 L 16.128 15.163 L 13.664 15.163 L 13.664 22.62 C 16.181 22.222 18.472 20.936 20.121 18.993 C 21.77 17.051 22.669 14.581 22.653 12.034 Z" style="fill: rgb(227, 90, 62); stroke: rgb(0, 0, 0); transform-box: fill-box; transform-origin: 50% 50%; stroke-width: 1.5px;"/>
</svg>