<?xml version="1.0" encoding="utf-8"?>
<svg width="800px" height="800px" viewBox="0 0 24 24" fill="none" xmlns="http://www.w3.org/2000/svg">
  <path fill="rgb(255,0,0)" stroke="rgb(255,0,0)" stroke-width="0" opacity="0.996078431372549" d="M 16.35 1.145 C 16.929 1.143 17.898 1.327 18.504 1.594 C 19.051 1.834 19.493 2.218 19.872 2.603 C 20.234 2.97 20.533 3.596 20.747 3.837 C 20.87 3.976 20.911 3.942 21.038 4.083 C 21.268 4.339 21.78 4.999 22.025 5.429 C 22.238 5.802 22.348 6.126 22.474 6.506 C 22.605 6.902 22.738 7.365 22.788 7.762 C 22.834 8.124 22.837 8.444 22.788 8.794 C 22.737 9.161 22.499 9.654 22.474 9.915 C 22.458 10.079 22.52 10.104 22.519 10.274 C 22.517 10.555 22.38 11.095 22.384 11.53 C 22.389 11.99 22.555 12.539 22.564 12.966 C 22.571 13.333 22.475 13.611 22.474 13.953 C 22.472 14.312 22.558 14.73 22.564 15.074 C 22.568 15.382 22.513 15.71 22.519 15.926 C 22.523 16.08 22.577 16.096 22.564 16.285 C 22.538 16.658 22.407 17.609 22.16 18.214 C 21.909 18.829 21.507 19.483 21.061 19.941 C 20.639 20.375 20.13 20.656 19.58 20.928 C 19 21.216 18.237 21.441 17.651 21.601 C 17.145 21.739 16.852 21.809 16.261 21.87 C 15.443 21.955 13.509 21.984 13.076 21.96 C 12.925 21.952 12.98 21.921 12.851 21.915 C 12.57 21.902 11.663 22.004 11.236 22.005 C 10.921 22.006 10.696 21.957 10.474 21.96 C 10.287 21.962 10.135 22.006 9.98 22.005 C 9.837 22.004 9.782 21.961 9.577 21.96 C 9.201 21.958 8.25 22.096 7.737 22.095 C 7.33 22.094 7.05 22.083 6.706 22.005 C 6.347 21.923 6.012 21.838 5.629 21.601 C 5.138 21.298 4.49 20.718 4.036 20.188 C 3.587 19.663 3.23 19.047 2.915 18.438 C 2.603 17.835 2.295 17.058 2.152 16.554 C 2.049 16.19 2.046 16.093 2.018 15.657 C 1.97 14.916 2.004 13.078 2.018 12.248 C 2.027 11.691 1.994 11.632 2.063 10.992 C 2.19 9.8 2.743 6.224 3.005 5.115 C 3.138 4.552 3.17 4.42 3.364 4.083 C 3.579 3.708 3.85 3.307 4.283 2.984 C 4.812 2.59 5.701 2.214 6.436 1.997 C 7.153 1.786 7.924 1.71 8.635 1.683 C 9.313 1.657 10.289 1.83 10.608 1.818 C 10.743 1.813 10.694 1.78 10.833 1.773 C 11.18 1.755 12.499 1.791 13.076 1.863 C 13.495 1.915 13.721 2.14 14.063 2.087 C 14.45 2.027 14.876 1.573 15.274 1.414 C 15.638 1.269 15.911 1.147 16.35 1.145 Z M 14.893 7.425 C 14.361 7.081 13.706 7.515 13.053 7.65 C 12.326 7.8 11.333 8.082 10.721 8.323 C 10.249 8.508 9.972 8.66 9.599 8.906 C 9.194 9.174 8.721 9.524 8.388 9.893 C 8.069 10.245 7.755 10.666 7.625 11.059 C 7.509 11.414 7.549 11.754 7.58 12.136 C 7.614 12.556 7.668 12.966 7.85 13.481 C 8.085 14.148 8.605 15.331 9.016 15.814 C 9.304 16.153 9.466 16.284 9.913 16.397 C 10.598 16.571 12.132 16.44 13.008 16.353 C 13.725 16.281 14.248 16.215 14.848 15.994 C 15.476 15.762 16.445 15.394 16.687 14.962 C 16.881 14.615 16.551 14.145 16.552 13.751 C 16.554 13.368 16.691 12.926 16.687 12.629 C 16.684 12.407 16.607 12.29 16.597 12.091 C 16.586 11.863 16.73 11.716 16.642 11.328 C 16.467 10.556 15.635 7.907 14.893 7.425 Z" style="fill: rgb(227, 90, 62); fill-opacity: 1; fill-rule: nonzero; stroke: none; stroke-dasharray: none; stroke-dashoffset: 0px; stroke-linecap: butt; stroke-linejoin: miter; stroke-miterlimit: 4; stroke-opacity: 1; stroke-width: 2px; paint-order: normal; vector-effect: none; opacity: 1; mix-blend-mode: normal; isolation: auto;"/>
  <path stroke="rgb(255,0,0)" stroke-width="0" opacity="0.9921568627450981" d="M 12.811 7.012 C 13.203 6.982 13.843 7.006 14.292 7.192 C 14.749 7.382 15.127 7.701 15.525 8.156 C 16.024 8.725 16.676 9.636 16.961 10.489 C 17.25 11.354 17.27 12.562 17.23 13.315 C 17.2 13.887 17.105 14.277 16.916 14.706 C 16.725 15.137 16.471 15.559 16.086 15.895 C 15.654 16.27 15.06 16.607 14.381 16.792 C 13.59 17.007 12.36 17.014 11.555 16.971 C 10.894 16.936 10.457 16.91 9.851 16.657 C 9.108 16.348 7.983 15.635 7.451 15.065 C 7.027 14.611 6.826 14.1 6.688 13.629 C 6.563 13.204 6.581 12.82 6.598 12.373 C 6.617 11.883 6.626 11.337 6.822 10.803 C 7.046 10.196 7.596 9.393 7.966 8.941 C 8.249 8.596 8.6 8.398 8.796 8.201 C 8.932 8.065 8.924 7.99 9.088 7.865 C 9.357 7.66 9.999 7.268 10.434 7.147 C 10.818 7.04 11.259 7.075 11.555 7.102 C 11.779 7.123 11.899 7.244 12.093 7.237 C 12.313 7.228 12.513 7.035 12.811 7.012 Z" style="fill-opacity: 1; fill-rule: nonzero; stroke: none; stroke-dasharray: none; stroke-dashoffset: 0px; stroke-linecap: butt; stroke-linejoin: miter; stroke-miterlimit: 4; stroke-opacity: 1; stroke-width: 2px; paint-order: normal; vector-effect: none; opacity: 1; mix-blend-mode: normal; isolation: auto; fill: rgb(244, 214, 121);"/>
  <path fill-rule="evenodd" clip-rule="evenodd" d="M12 18C15.3137 18 18 15.3137 18 12C18 8.68629 15.3137 6 12 6C8.68629 6 6 8.68629 6 12C6 15.3137 8.68629 18 12 18ZM12 16C14.2091 16 16 14.2091 16 12C16 9.79086 14.2091 8 12 8C9.79086 8 8 9.79086 8 12C8 14.2091 9.79086 16 12 16Z" fill="#0F0F0F"/>
  <path d="M18 5C17.4477 5 17 5.44772 17 6C17 6.55228 17.4477 7 18 7C18.5523 7 19 6.55228 19 6C19 5.44772 18.5523 5 18 5Z" fill="#0F0F0F"/>
  <path fill-rule="evenodd" clip-rule="evenodd" d="M1.65396 4.27606C1 5.55953 1 7.23969 1 10.6V13.4C1 16.7603 1 18.4405 1.65396 19.7239C2.2292 20.8529 3.14708 21.7708 4.27606 22.346C5.55953 23 7.23969 23 10.6 23H13.4C16.7603 23 18.4405 23 19.7239 22.346C20.8529 21.7708 21.7708 20.8529 22.346 19.7239C23 18.4405 23 16.7603 23 13.4V10.6C23 7.23969 23 5.55953 22.346 4.27606C21.7708 3.14708 20.8529 2.2292 19.7239 1.65396C18.4405 1 16.7603 1 13.4 1H10.6C7.23969 1 5.55953 1 4.27606 1.65396C3.14708 2.2292 2.2292 3.14708 1.65396 4.27606ZM13.4 3H10.6C8.88684 3 7.72225 3.00156 6.82208 3.0751C5.94524 3.14674 5.49684 3.27659 5.18404 3.43597C4.43139 3.81947 3.81947 4.43139 3.43597 5.18404C3.27659 5.49684 3.14674 5.94524 3.0751 6.82208C3.00156 7.72225 3 8.88684 3 10.6V13.4C3 15.1132 3.00156 16.2777 3.0751 17.1779C3.14674 18.0548 3.27659 18.5032 3.43597 18.816C3.81947 19.5686 4.43139 20.1805 5.18404 20.564C5.49684 20.7234 5.94524 20.8533 6.82208 20.9249C7.72225 20.9984 8.88684 21 10.6 21H13.4C15.1132 21 16.2777 20.9984 17.1779 20.9249C18.0548 20.8533 18.5032 20.7234 18.816 20.564C19.5686 20.1805 20.1805 19.5686 20.564 18.816C20.7234 18.5032 20.8533 18.0548 20.9249 17.1779C20.9984 16.2777 21 15.1132 21 13.4V10.6C21 8.88684 20.9984 7.72225 20.9249 6.82208C20.8533 5.94524 20.7234 5.49684 20.564 5.18404C20.1805 4.43139 19.5686 3.81947 18.816 3.43597C18.5032 3.27659 18.0548 3.14674 17.1779 3.0751C16.2777 3.00156 15.1132 3 13.4 3Z" fill="#0F0F0F"/>
</svg>