<?xml version="1.0" encoding="utf-8"?>
<svg fill="#000000" width="800px" height="800px" viewBox="0 0 32 32" version="1.1" xmlns="http://www.w3.org/2000/svg">
  <title>linkedin</title>
  <path stroke="rgb(255,0,0)" stroke-width="0" opacity="0.9803921568627451" d="M 4.004 15.464 C 3.857 15.25 3.743 15.003 3.672 14.719 C 3.564 14.52 3.469 14.326 3.398 14.158 C 3.216 13.73 3.13 13.418 3.099 12.962 C 3.063 12.424 3.159 11.755 3.278 11.108 C 3.408 10.404 3.812 9.612 3.876 8.895 C 3.937 8.218 3.67 7.538 3.697 6.921 C 3.722 6.348 3.809 5.829 3.996 5.306 C 4.191 4.762 4.474 4.118 4.863 3.721 C 5.232 3.344 5.81 3.061 6.239 2.943 C 6.599 2.844 6.877 2.876 7.256 2.943 C 7.715 3.024 8.417 3.606 8.811 3.481 C 9.178 3.366 9.268 2.627 9.589 2.345 C 9.892 2.078 10.27 1.881 10.665 1.807 C 11.083 1.729 11.635 1.768 12.041 1.926 C 12.44 2.082 12.835 2.37 13.088 2.734 C 13.358 3.124 13.577 3.677 13.566 4.229 C 13.554 4.866 12.593 6.07 12.848 6.352 C 13.112 6.644 14.517 5.896 15.211 5.874 C 15.796 5.856 16.298 5.934 16.766 6.113 C 17.222 6.288 17.695 6.589 17.992 6.921 C 18.267 7.227 18.432 7.63 18.531 7.997 C 18.625 8.349 18.653 8.671 18.59 9.074 C 18.514 9.566 18.335 10.157 17.992 10.749 C 17.984 10.762 17.977 10.775 17.969 10.789 C 18.734 10.71 19.449 10.633 19.986 10.531 C 20.996 10.338 21.509 9.978 22.318 9.933 C 23.161 9.886 24.089 10.033 24.95 10.291 C 25.844 10.56 26.963 11.151 27.582 11.548 C 28.02 11.828 28.25 12.025 28.509 12.355 C 28.784 12.705 29.038 13.176 29.167 13.611 C 29.292 14.034 29.309 14.555 29.287 14.927 C 29.268 15.231 29.124 15.373 29.107 15.705 C 29.084 16.164 29.359 16.985 29.287 17.499 C 29.225 17.94 29.033 18.279 28.808 18.635 C 28.572 19.01 28.135 19.446 27.881 19.682 C 27.705 19.846 27.467 19.787 27.432 20.011 C 27.369 20.43 28.27 21.735 28.449 22.463 C 28.597 23.061 28.629 23.402 28.569 24.078 C 28.485 25.024 28.096 26.896 27.732 27.727 C 27.482 28.296 27.224 28.608 26.864 28.893 C 26.513 29.171 26.007 29.347 25.608 29.432 C 25.254 29.507 24.998 29.518 24.591 29.432 C 24.038 29.313 23.178 28.627 22.558 28.594 C 22.015 28.566 21.748 28.961 21.062 29.073 C 20.03 29.241 17.759 29.299 16.696 29.252 C 15.979 29.221 15.642 29.208 15.081 29.013 C 14.434 28.788 13.679 27.998 13.047 27.877 C 12.516 27.774 12.047 28.154 11.552 28.116 C 11.05 28.077 10.585 27.648 10.057 27.637 C 9.492 27.626 8.671 28.095 8.262 28.116 C 8.011 28.128 7.941 28.005 7.724 27.996 C 7.446 27.985 7.049 28.152 6.707 28.116 C 6.351 28.078 5.941 27.929 5.631 27.757 C 5.338 27.594 5.093 27.39 4.883 27.129 C 4.659 26.849 4.464 26.487 4.345 26.112 C 4.218 25.714 4.147 24.993 4.165 24.796 C 4.173 24.718 4.216 24.741 4.225 24.677 C 4.241 24.559 4.166 24.343 4.165 24.078 C 4.164 23.685 4.284 23.013 4.285 22.463 C 4.286 21.898 4.143 21.478 4.165 20.729 C 4.197 19.649 4.27 17.591 4.644 16.422 C 4.673 16.329 4.706 16.237 4.741 16.146 C 4.704 16.116 4.667 16.084 4.63 16.051 C 4.338 15.892 4.177 15.715 4.004 15.464 Z M 11.821 20.819 C 11.803 20.83 11.803 20.927 11.821 20.938 C 11.841 20.95 11.941 20.898 11.941 20.878 C 11.941 20.858 11.841 20.807 11.821 20.819 Z" style="fill-opacity: 1; fill-rule: nonzero; stroke: none; stroke-dasharray: none; stroke-dashoffset: 0px; stroke-linecap: butt; stroke-linejoin: miter; stroke-miterlimit: 4; stroke-opacity: 1; stroke-width: 2px; paint-order: normal; vector-effect: none; opacity: 1; mix-blend-mode: normal; isolation: auto; fill: rgb(244, 214, 121);"/>
  <path d="M28.778 1.004h-25.56c-0.008-0-0.017-0-0.027-0-1.199 0-2.172 0.964-2.186 2.159v25.672c0.014 1.196 0.987 2.161 2.186 2.161 0.010 0 0.019-0 0.029-0h25.555c0.008 0 0.018 0 0.028 0 1.2 0 2.175-0.963 2.194-2.159l0-0.002v-25.67c-0.019-1.197-0.994-2.161-2.195-2.161-0.010 0-0.019 0-0.029 0h0.001zM9.9 26.562h-4.454v-14.311h4.454zM7.674 10.293c-1.425 0-2.579-1.155-2.579-2.579s1.155-2.579 2.579-2.579c1.424 0 2.579 1.154 2.579 2.578v0c0 0.001 0 0.002 0 0.004 0 1.423-1.154 2.577-2.577 2.577-0.001 0-0.002 0-0.003 0h0zM26.556 26.562h-4.441v-6.959c0-1.66-0.034-3.795-2.314-3.795-2.316 0-2.669 1.806-2.669 3.673v7.082h-4.441v-14.311h4.266v1.951h0.058c0.828-1.395 2.326-2.315 4.039-2.315 0.061 0 0.121 0.001 0.181 0.003l-0.009-0c4.5 0 5.332 2.962 5.332 6.817v7.855z" style="fill: rgb(227, 90, 62); stroke: rgb(0, 0, 0); stroke-width: 1.5px;"/>
</svg>