<?xml version="1.0" encoding="utf-8"?>
<svg width="800px" height="800px" viewBox="0 -0.407 82.285 48.407" xmlns="http://www.w3.org/2000/svg">
  <path stroke="rgb(255,0,0)" stroke-width="0" opacity="0.9921568627450981" d="M 16.043 13.703 C 16.776 13.613 17.613 13.582 18.286 13.793 C 18.939 13.997 19.532 14.358 20.036 14.914 C 20.623 15.563 21.143 16.553 21.471 17.606 C 21.846 18.808 21.982 20.56 22.01 21.823 C 22.034 22.917 21.754 23.814 21.74 24.783 C 21.728 25.728 21.997 26.723 21.92 27.565 C 21.851 28.321 21.656 29.061 21.382 29.628 C 21.141 30.125 20.872 30.59 20.439 30.839 C 19.977 31.106 19.306 31.27 18.645 31.109 C 17.792 30.9 16.883 29.644 15.774 29.224 C 14.575 28.771 12.937 28.696 11.647 28.596 C 10.469 28.505 9.205 28.729 8.327 28.596 C 7.655 28.495 7.108 28.295 6.712 28.058 C 6.399 27.87 6.207 27.696 6.039 27.385 C 5.835 27.006 5.558 26.515 5.681 25.86 C 5.816 25.136 6.713 24.058 7.379 22.998 C 7.032 22.852 6.728 22.633 6.53 22.332 C 6.256 21.915 6.112 21.107 6.171 20.628 C 6.221 20.22 6.366 19.86 6.71 19.596 C 7.022 19.356 7.652 19.173 8.22 19.065 C 8.227 18.624 8.258 18.215 8.372 17.875 C 8.639 17.079 9.121 16.486 9.583 16.036 C 9.987 15.642 10.477 15.391 10.929 15.228 C 11.345 15.079 11.782 15.031 12.185 15.049 C 12.573 15.066 13.022 15.438 13.307 15.318 C 13.59 15.198 13.542 14.587 13.89 14.331 C 14.345 13.996 15.311 13.793 16.043 13.703 Z" style="fill-opacity: 1; fill-rule: nonzero; stroke: none; stroke-dasharray: none; stroke-dashoffset: 0px; stroke-linecap: butt; stroke-linejoin: miter; stroke-miterlimit: 4; stroke-opacity: 1; stroke-width: 2px; paint-order: normal; vector-effect: none; opacity: 1; mix-blend-mode: normal; isolation: auto; fill: rgb(244, 214, 121);"/>
  <path style="stroke: rgb(0, 0, 0); fill: rgb(227, 90, 62);" d="M 17.649 31.407 C 17.949 31.361 18.393 31.374 18.726 31.496 C 19.068 31.622 19.44 31.912 19.668 32.169 C 19.871 32.398 19.841 32.648 20.072 32.932 C 20.4 33.336 21.233 33.85 21.642 34.322 C 21.998 34.735 22.243 35.097 22.449 35.579 C 22.674 36.103 22.873 36.731 22.898 37.373 C 22.925 38.069 22.786 39.047 22.539 39.616 C 22.339 40.077 22.027 40.385 21.687 40.648 C 21.352 40.906 20.943 41.08 20.52 41.186 C 20.078 41.297 19.599 41.399 19.085 41.276 C 18.464 41.126 16.939 41.911 16.355 41.221 C 15.565 40.289 15.921 36.429 15.182 35.623 C 14.692 35.09 13.926 35.309 13.567 34.951 C 13.234 34.618 12.994 34.084 13.029 33.605 C 13.068 33.061 13.486 32.207 13.971 31.855 C 14.457 31.502 15.399 31.506 15.945 31.496 C 16.372 31.489 16.413 30.754 16.714 30.722 C 16.964 30.695 17.399 31.444 17.649 31.407 Z M 38.8 8.106 C 39.805 8.026 40.093 8.427 40.46 8.778 C 40.789 9.094 40.905 9.575 40.998 10.035 C 41.097 10.526 41.018 11.187 40.998 11.65 C 40.982 12.03 40.853 12.212 40.908 12.636 C 40.99 13.265 41.527 13.905 41.716 15.149 C 42.035 17.249 41.761 22.575 41.985 24.928 C 42.134 26.498 42.517 27.394 42.613 28.427 C 42.694 29.3 42.652 29.926 42.613 30.76 C 42.57 31.679 42.615 32.945 42.344 33.721 C 42.122 34.356 41.774 34.91 41.312 35.201 C 40.858 35.486 40.183 35.482 39.607 35.47 C 39.017 35.457 38.493 35.336 37.813 35.111 C 36.956 34.829 36.049 34.143 34.852 33.765 C 33.377 33.299 30.974 33.148 29.469 32.689 C 28.224 32.309 27.082 31.459 26.329 31.343 C 25.852 31.269 25.628 31.601 25.252 31.522 C 24.811 31.43 24.194 31.129 23.862 30.67 C 23.473 30.133 23.42 29.444 23.233 28.337 C 22.934 26.557 22.546 22.228 22.516 20.442 C 22.497 19.346 22.733 18.75 22.695 18.109 C 22.666 17.606 22.418 17.331 22.426 16.853 C 22.435 16.28 22.647 15.372 22.875 14.879 C 23.052 14.495 22.946 14.408 23.548 14.027 C 25.328 12.9 36.366 8.298 38.8 8.106 Z"/>
  <path d="M0 0h48v48H0z" fill="none"/>
  <g id="Shopicon">
    <path d="M13.091,12C8.07,12,4,16.477,4,22c0,4.701,2.952,8.633,6.926,9.703L14,44h12l-2.74-10.961L44,39.647V4l-24,8H13.091z M17.123,40l-2-8h3.754l2,8H17.123z M20,16v12h-6.909C10.284,28,8,25.308,8,22s2.284-6,5.091-6H20z M40,34.174l-16-5.098V14.883 L40,9.55V34.174z" style=""/>
  </g>
  <path style="fill: rgb(216, 216, 216); stroke: rgb(0, 0, 0); stroke-width: 5px; stroke-linecap: round;" d="M 48.995 11.51 L 65.225 6.798"/>
  <path style="fill: rgb(216, 216, 216); stroke: rgb(0, 0, 0); stroke-width: 4px; stroke-linecap: round;" d="M 47.517 22.93 L 69.751 23.519"/>
  <path style="fill: rgb(216, 216, 216); stroke: rgb(0, 0, 0); stroke-width: 5px; stroke-linecap: round;" d="M 48.061 32.106 L 64.917 40.145"/>
</svg>