<?xml version="1.0" encoding="UTF-8" standalone="no"?>
<svg
   fill="#000000"
   height="800px"
   width="800px"
   version="1.1"
   id="Capa_1"
   viewBox="0 0 465 465"
   sodipodi:docname="pentagram.svg"
   inkscape:version="1.1.2 (b8e25be833, 2022-02-05)"
   xmlns:inkscape="http://www.inkscape.org/namespaces/inkscape"
   xmlns:sodipodi="http://sodipodi.sourceforge.net/DTD/sodipodi-0.dtd"
   xmlns="http://www.w3.org/2000/svg"
   xmlns:svg="http://www.w3.org/2000/svg">
  <defs
     id="defs41" />
  <sodipodi:namedview
     id="namedview39"
     pagecolor="#ffffff"
     bordercolor="#666666"
     borderopacity="1.0"
     inkscape:pageshadow="2"
     inkscape:pageopacity="0.0"
     inkscape:pagecheckerboard="0"
     showgrid="false"
     inkscape:zoom="0.505"
     inkscape:cx="828.71287"
     inkscape:cy="273.26733"
     inkscape:window-width="1920"
     inkscape:window-height="1017"
     inkscape:window-x="-8"
     inkscape:window-y="-8"
     inkscape:window-maximized="1"
     inkscape:current-layer="Capa_1" />
  <path
     fill="rgb(255,0,0)"
     stroke="rgb(255,0,0)"
     stroke-width="0"
     opacity="0.9647058823529412"
     d="M 35.391 254.511 C 35.259 257.598 34.231 258.102 34.265 261.268 C 34.302 264.666 35.97 271.444 36.96 276.967 C 37.589 276.844 38.256 276.757 38.974 276.706 C 39.511 276.668 40.119 276.643 40.779 276.633 C 40.804 275.734 40.865 274.848 40.95 273.991 C 41.304 270.443 44.252 268.136 44.029 263.73 C 43.708 257.39 37.911 242.514 35.307 238.589 C 34.947 238.046 34.593 237.742 34.244 237.547 C 34.441 243.175 35.559 250.582 35.391 254.511 Z M 172.018 42.184 C 171.858 42.635 171.6 43.033 171.093 43.311 C 169.236 44.328 165.013 44.957 161.477 44.901 C 153.262 47.699 146.468 52.774 141.345 54.682 C 141.082 55.012 140.813 55.345 140.541 55.68 C 153.616 52.948 171.64 48.418 177.944 45.669 C 182.692 43.598 184.034 41.605 186.209 39.443 C 181.184 40.299 176.356 41.23 172.018 42.184 Z M 164.166 443.971 C 154.506 442.527 135.455 436.628 130.816 432.683 C 128.457 430.678 130.69 428.496 128.764 426.526 C 125.716 423.411 112.999 419.985 110.293 417.804 C 109.037 416.793 110.171 416.569 108.753 415.239 C 104.698 411.432 79.981 399.255 74.377 392.15 C 70.817 387.636 73.233 383.247 70.785 379.323 C 68.06 374.953 60.28 370.138 57.958 367.522 C 56.709 366.114 57.13 366.65 55.906 364.443 C 54.745 362.351 52.446 357.241 49.626 350.967 C 45.766 350.306 41.606 349.336 38.831 346.576 C 31.807 339.59 23.293 319.033 23.438 309.634 C 23.441 309.426 23.448 309.219 23.459 309.012 C 22.399 308.643 21.532 308.13 21.016 306.978 C 19.375 303.319 20.747 295.002 22.507 289.967 C 21.437 289.336 20.469 288.432 19.626 287.167 C 17.243 283.588 15.955 276.31 15.122 269.15 C 14.086 260.24 16.564 241.073 15.122 237.058 C 14.577 235.541 13.621 236.805 12.87 235.369 C 10.997 231.788 6.31 219.712 7.24 208.343 C 8.34 194.888 17.879 165.464 24.555 151.821 C 22.892 150.705 21.603 149.295 21.01 147.749 C 19.845 144.712 21.053 138.248 23.262 135.925 C 25.344 133.737 31.376 135.052 33.396 133.673 C 34.848 132.683 34.212 132.031 35.648 129.732 C 39.072 124.254 54.503 100.536 57.606 96.514 C 58.613 95.208 58.275 95.797 59.296 94.825 C 61.679 92.553 69.7 86.31 73.934 81.312 C 78.135 76.355 78.212 70.988 84.632 64.984 C 94.774 55.499 126.004 33.897 136.43 32.329 C 138.493 32.019 140.271 32.348 141.784 33.002 C 145.655 31.868 150.223 30.761 154.634 29.637 C 156.081 26.922 157.68 24.409 158.707 23.042 C 160.222 21.027 160.092 20.46 163.211 19.664 C 165.287 19.134 168.872 18.881 173.309 18.797 C 173.503 17.782 173.897 16.825 175.107 16.022 C 180.674 12.326 198.764 9.84 208.889 9.265 C 217.615 8.77 227.047 12.526 232.536 11.517 C 236.272 10.831 236.954 7.866 240.418 7.013 C 244.976 5.891 251.299 5.323 258.435 7.013 C 263.315 8.169 271.171 11.613 278.318 15.09 C 282.002 15.234 285.261 16.346 288.203 16.286 C 291.207 16.225 294.004 14.804 296.085 15.16 C 297.747 15.444 299.038 15.887 300.026 17.412 C 300.601 18.299 301.254 19.851 301.762 21.592 C 304.75 21.856 308.902 22.725 312.075 24.111 C 316.519 26.052 319.619 30.281 325.053 33.196 C 325.248 33.301 325.449 33.405 325.655 33.51 C 326.725 33.707 327.75 33.907 328.723 34.108 C 341.776 36.807 353.16 41.25 361.561 45.396 C 368.03 48.589 373.877 53.048 376.44 55.657 C 377.861 57.104 377.261 57.937 378.492 59.249 C 380.339 61.215 386.039 64.046 387.728 65.919 C 388.774 67.08 388.167 67.7 389.267 68.997 C 391.265 71.353 396.326 73.397 401.068 78.746 C 408.825 87.495 421.688 104.135 430.827 121.845 C 441.89 143.283 456.539 183.067 460.586 200.86 C 462.974 211.362 462.144 212.572 461.612 223.436 C 460.709 241.871 458.901 286.566 451.35 307.581 C 445.565 323.682 430.878 334.785 426.722 343.497 C 424.184 348.818 426.151 351.434 423.644 355.811 C 420.297 361.654 412.456 368.792 405.686 374.795 C 398.525 381.145 386.886 385.887 381.571 392.753 C 376.928 398.751 379.825 406.312 373.875 412.764 C 365.25 422.115 340.484 434.811 326.671 439.444 C 315.932 443.046 307.499 440.224 297.938 442.523 C 288.001 444.911 280.203 451.728 268.179 453.81 C 253.281 456.39 228.775 455.489 213.792 453.81 C 201.886 452.476 193.467 450.771 184.034 446.627 C 182.622 446.006 181.218 445.27 179.824 444.45 C 175.4 445.119 169.579 444.781 164.166 443.971 Z M 311.859 129.815 C 311.229 129.907 310.086 131.822 308.263 134.555 C 308.745 136.061 309.088 137.818 309.349 139.728 C 310.593 136.731 311.495 134.366 311.859 132.893 C 312.359 130.87 312.488 129.723 311.859 129.815 Z M 120.992 144.181 C 120.232 144.354 119.132 146.794 118.939 148.286 C 118.736 149.858 119.041 153.119 119.965 153.417 C 120.977 153.743 124.818 150.637 125.096 149.312 C 125.317 148.259 123.765 147.117 123.044 146.234 C 122.39 145.432 121.624 144.037 120.992 144.181 Z M 120.992 275.531 C 120.673 275.429 118.837 277.265 118.939 277.583 C 119.028 277.86 120.649 277.925 120.992 277.583 C 121.334 277.241 121.269 275.619 120.992 275.531 Z M 267.019 278.041 C 266.77 278.982 266.536 279.152 267.019 279.067 C 267.399 279.001 268.646 278.328 270.472 277.222 C 270.627 273.212 270.443 269.538 271.001 264.554 C 268.857 271.551 267.378 276.685 267.019 278.041 Z"
     style="fill: rgb(227, 90, 62); fill-opacity: 1; fill-rule: nonzero; stroke: none; stroke-dasharray: none; stroke-dashoffset: 0px; stroke-linecap: butt; stroke-linejoin: miter; stroke-miterlimit: 4; stroke-opacity: 1; stroke-width: 2px; paint-order: normal; vector-effect: none; opacity: 1; mix-blend-mode: normal; isolation: auto;"
     id="path26" />
  <path
     stroke="rgb(255,0,0)"
     stroke-width="0"
     opacity="0.9607843137254902"
     d="m 76.094,306.242 c 3.036,-0.19 7.58,0.13 11.701,0.755 4.516,0.684 7.964,2.446 14.343,3.397 6.837,1.019 20.3,1.373 29.913,2.061 0.239,-0.586 0.498,-1.15 0.774,-1.681 1.092,-2.104 2.552,-3.897 4.341,-5.473 1.885,-1.66 4.147,-3.263 6.794,-4.152 2.929,-0.983 7.74328,2.02902 11.61528,1.92002 4.611,-0.13 10.17572,-3.60302 14.42772,-2.29702 3.55,1.09 6.304,3.175 8.493,5.473 2.102,2.206 3.652,5.129 4.529,7.926 0.465,1.484 0.733,3.109 0.835,4.717 1.096,0.918 2.064,1.893 2.904,2.861 1.954,2.253 3.08,4.862 3.775,7.549 0.703,2.719 0.74,6.02 0.377,8.682 -0.336,2.463 -2.447,4.598 -2.264,6.794 0.184,2.208 2.75,3.979 3.397,6.416 0.301,1.137 0.501,2.439 0.593,3.778 2.544,3.762 3.19,7.247 4.047,10.344 0.817,2.955 0.926,5.505 0.755,7.927 -0.156,2.194 -2.176,3.625 -1.51,6.039 1.012,3.667 9.796,12.24 11.134,13.777 0.388,0.445 0.266,0.19 0.567,0.566 0.728,0.912 3.209,3.701 4.152,6.039 1.014,2.517 1.677,5.766 1.509,8.681 -0.172,2.997 -1.227,6.467 -2.642,9.059 -1.343,2.461 -3.383,4.611 -5.473,6.228 -2.017,1.561 -4.233,2.751 -6.794,3.397 -2.793,0.705 -6.535,0.867 -9.436,0.377 -2.733,-0.461 -5.353,-1.632 -7.549,-3.019 -2.124,-1.342 -4.455,-3.972 -5.473,-5.096 -0.552,-0.61 -0.47,-0.81 -0.944,-1.321 -0.679,-0.734 -1.56,-2.057 -3.019,-2.642 -1.955,-0.783 -5.061,0.159 -8.304,-0.755 -4.317,-1.217 -10.799,-4.127 -15.475,-7.171 -4.624,-3.01 -6.509,-6.693 -12.456,-10.946 -8.854,-6.334 -31.201,-17.686 -38.499,-23.025 -3.942,-2.882 -5.124,-4.63 -6.983,-6.605 -1.501,-1.595 -1.59,-2.303 -3.586,-4.34 -3.661,-3.738 -16.587,-14.286 -19.061,-17.174 -0.953,-1.113 -0.518,-1.422 -1.132,-2.076 -0.765,-0.814 -2.293,-1.099 -3.397,-2.265 -1.431,-1.511 -3.21,-4.133 -4.152,-6.605 -0.99,-2.596 -1.56,-6 -1.51,-8.682 0.045,-2.44 0.548,-4.581 1.51,-6.794 1.038,-2.388 2.74,-5.065 4.718,-6.982 1.983,-1.923 4.934,-3.596 7.171,-4.53 1.868,-0.779 3.058,-0.992 5.284,-1.132 z m 153.778,2.343 c 2.3,-0.094 5.882,-0.269 8.752,0.821 3.204,1.216 7.161,3.968 9.435,6.7 2.138,2.568 3.349,5.656 4.102,9.025 0.822,3.674 0.825,8.645 0.274,12.307 -0.492,3.267 -1.633,6.369 -3.008,8.752 -1.214,2.103 -2.617,3.622 -4.513,5.059 -2.081,1.577 -5.17,3.118 -7.658,3.829 -2.24,0.64 -4.387,0.724 -6.563,0.547 -2.2,-0.179 -4.458,-0.672 -6.564,-1.641 -2.235,-1.029 -4.58,-2.38 -6.427,-4.512 -2.123,-2.452 -4.251,-6.103 -5.196,-9.846 -1.034,-4.097 -0.823,-10.205 -0.274,-13.948 0.43,-2.923 1.246,-4.984 2.462,-7.11 1.206,-2.109 2.93,-4.077 4.786,-5.607 1.841,-1.518 4.412,-2.839 6.29,-3.555 1.509,-0.576 2.394,-0.75 4.102,-0.821 z m 152.692,-6.576 c 3.075,-0.349 7.454,-0.158 10.666,1.094 3.216,1.253 6.557,4.002 8.615,6.427 1.824,2.148 2.874,4.63 3.556,7.11 0.672,2.446 0.828,5.182 0.547,7.658 -0.278,2.445 -0.703,4.224 -2.188,7.11 -2.207,4.287 -8.626,12.965 -11.624,16.273 -1.831,2.02 -2.631,1.724 -4.512,3.692 -3.06,3.201 -8.363,12.195 -12.17,15.452 -2.776,2.374 -4.923,2.058 -7.931,4.102 -4.004,2.721 -9.221,8.264 -13.948,11.76 -4.532,3.352 -11.614,7.07 -13.811,8.888 -1.006,0.833 -0.569,1.029 -1.504,1.778 -1.788,1.433 -6.899,4.92 -10.119,6.017 -2.756,0.939 -5.367,0.268 -7.931,0.82 -1.198,0.258 -2.375,0.732 -3.537,1.203 -0.275,1.103 -0.65,2.179 -1.118,3.232 -0.96,2.161 -2.161,4.352 -4.102,6.154 -2.216,2.057 -5.821,4.204 -8.888,5.196 -2.915,0.942 -5.498,-0.109 -9.025,0.82 -4.657,1.228 -12.168,5.967 -16.683,7.111 -3.291,0.834 -5.526,0.906 -8.205,0.547 -2.7,-0.362 -5.674,-1.417 -7.931,-2.735 -2.119,-1.237 -3.869,-2.858 -5.333,-4.786 -1.526,-2.009 -2.869,-4.577 -3.555,-7.11 -0.695,-2.568 -0.938,-5.503 -0.547,-8.205 0.401,-2.769 1.864,-6.175 3.008,-8.205 0.875,-1.551 1.729,-2.342 2.872,-3.418 1.24,-1.168 2.096,-1.993 4.376,-3.282 1.345,-0.761 3.295,-1.774 5.516,-2.846 -0.009,-1.495 0.043,-2.983 0.16,-4.405 0.438,-5.321 2.864,-10.879 3.829,-16.136 0.924,-5.035 0.825,-8.992 1.914,-14.768 1.377,-7.299 4.622,-20.508 6.291,-25.981 0.962,-3.157 1.219,-4.182 2.461,-6.29 1.414,-2.4 3.904,-5.49 5.88,-7.248 1.63,-1.45 3.082,-2.242 4.923,-3.008 1.961,-0.816 3.702,-1.529 6.563,-1.641 4.093,-0.16 10.422,1.649 16.41,2.188 6.73,0.605 15.764,0.335 22.152,1.094 5.347,0.635 10.62,2.935 13.948,2.735 2.239,-0.135 3.13,-1.544 4.923,-1.915 1.922,-0.398 4.007,-0.621 6.29,-0.273 1.828,0.278 4.146,0.944 6.191,1.778 0.599,-0.587 1.213,-1.153 1.812,-1.697 1.557,-1.418 3.038,-2.797 4.922,-3.829 2.004,-1.097 4.206,-2.163 6.837,-2.461 z m -63.201,-59.592 c 3.808,-0.677 9.822,-0.511 13.931,0.697 3.832,1.126 7.454,2.796 10.101,5.921 3.04,3.589 6.012,10.664 6.269,15.325 0.225,4.054 -1.738,8.209 -3.483,11.146 -1.526,2.57 -3.026,4.494 -5.921,5.921 -3.774,1.86 -11.187,3.158 -16.021,2.786 -4.359,-0.335 -8.774,-2.285 -11.842,-4.18 -2.61,-1.611 -4.495,-3.026 -5.921,-5.921 -1.86,-3.774 -3.757,-11.241 -2.787,-16.021 0.929,-4.577 5.057,-9.579 8.011,-12.191 2.371,-2.096 4.551,-2.929 7.663,-3.483 z M 362.819,96.556 c 3.129,-0.597 7.078,-0.48 10.257,0.54 3.214,1.031 5.291,1.498 8.907,5.668 7.277,8.394 23.272,40.075 29.69,52.903 4.163,8.32 5.674,10.974 8.098,18.894 3.17,10.36 6.297,26.561 8.097,39.407 1.727,12.323 3.1,29.288 2.699,36.168 -0.204,3.496 -0.518,4.29 -1.619,6.478 -1.295,2.57 -3.754,5.878 -6.208,7.827 -2.348,1.864 -5.236,3.146 -8.098,3.779 -2.892,0.64 -6.046,0.912 -9.177,0 -3.594,-1.047 -7.778,-3.334 -11.066,-6.748 -3.889,-4.038 -4.175,-10.908 -9.987,-17.004 -8.479,-8.895 -36.995,-25.534 -41.296,-29.421 -1.253,-1.132 -0.466,-1.077 -1.35,-1.889 -1.708,-1.569 -7.619,-3.46 -9.986,-6.748 -2.598,-3.608 -4.639,-9.846 -4.319,-14.575 0.319,-4.717 4.365,-11.197 6.208,-13.766 1.065,-1.484 2.427,-1.017 2.969,-2.429 0.804,-2.094 -1.128,-5.725 -0.54,-10.256 0.901,-6.933 5.39,-22.035 8.097,-28.611 1.796,-4.361 5.15,-6.393 5.399,-9.177 0.211,-2.356 -2.231,-4.084 -2.699,-6.478 -0.509,-2.601 -0.953,-5.571 0,-8.637 1.17,-3.767 4.855,-9.479 7.827,-12.146 2.452,-2.2 5.138,-3.214 8.097,-3.779 z m -72.207,33.029 c 3.126,-0.383 6.342,0.089 9.177,1.08 2.832,0.99 5.736,2.182 7.828,4.858 2.595,3.321 5.079,10.552 5.398,14.846 0.26,3.492 -0.723,5.921 -2.159,9.177 -1.739,3.94 -5.357,9.929 -8.368,12.685 -2.38,2.18 -4.981,3.067 -7.557,3.779 -2.467,0.682 -4.682,1.233 -7.558,0.54 -3.789,-0.913 -10.285,-4.234 -13.225,-7.288 -2.508,-2.604 -3.622,-6.112 -4.319,-9.177 -0.653,-2.874 -1.016,-5.2 0,-8.637 1.447,-4.896 6.496,-14.537 10.527,-18.084 3.108,-2.735 6.914,-3.369 10.256,-3.779 z M 244.93,40.59 c 11.598,-0.536 45.717,1.772 58.3,4.858 7.68,1.883 11.888,4.02 15.385,7.288 2.999,2.802 4.563,7 5.399,10.256 0.723,2.821 0.931,5.1 0,8.098 -1.212,3.902 -2.996,8.171 -8.368,13.225 -9.116,8.577 -39.136,25.494 -49.663,31.31 -0.282,0.156 -0.556,0.307 -0.822,0.454 -0.035,0.06 -0.069,0.118 -0.104,0.176 -1.451,2.428 -2.639,3.251 -5.128,5.128 -3.593,2.71 -10.739,7.314 -15.655,9.177 -4.177,1.583 -7.925,2.8 -11.876,2.16 -0.19,-0.031 -0.383,-0.066 -0.578,-0.107 -0.827,0.324 -1.675,0.595 -2.545,0.826 -2.829,0.751 -6.21,0.988 -9.177,0.54 -2.971,-0.45 -6.281,-1.739 -8.637,-3.239 -2.141,-1.363 -3.66,-2.984 -5.129,-5.128 -1.655,-2.417 -1.525,-5.835 -4.048,-8.908 -3.461,-4.213 -13.223,-9.493 -17.005,-13.225 -2.603,-2.57 -1.946,-4.091 -5.128,-6.748 -5.67,-4.734 -25.883,-13.039 -31.04,-18.084 -2.89,-2.828 -3.048,-4.775 -3.778,-7.557 -0.773,-2.945 -1.43,-6.281 -0.54,-9.717 1.068,-4.125 4.471,-10.295 7.827,-13.226 3.002,-2.621 5.218,-3.215 10.797,-4.318 9.846,-1.948 35.571,-2.894 48.044,-2.7 9.07,0.142 15.627,2.473 21.593,2.16 4.734,-0.249 5.685,-2.414 11.876,-2.699 z m -76.16,88.726 c 3.356,-0.581 7.198,-0.003 10.257,1.08 2.942,1.041 5.36,2.722 7.827,5.128 2.894,2.821 6.593,7.334 8.098,11.336 1.414,3.761 1.966,8.11 1.079,11.876 -0.916,3.894 -4.342,8.545 -6.747,11.067 -1.884,1.975 -3.518,2.958 -5.938,3.778 -2.821,0.956 -6.524,1.945 -10.257,1.08 -4.642,-1.076 -11.969,-5.653 -15.385,-8.907 -2.652,-2.527 -3.861,-5.056 -4.858,-8.097 -1.055,-3.216 -1.839,-7.113 -1.08,-10.797 0.849,-4.122 3.709,-9.739 6.748,-12.686 2.765,-2.681 6.769,-4.254 10.256,-4.858 z m -32.144,113.607 c 5.212,-0.896 11.645,-0.273 15.655,1.08 3.197,1.078 5.298,2.449 7.287,5.128 2.486,3.346 5.059,10.683 5.398,14.575 0.25,2.861 -0.543,4.688 -1.619,7.018 -1.211,2.621 -3.093,5.753 -5.668,7.827 -2.793,2.249 -6.739,3.854 -10.797,4.859 -4.479,1.108 -10.507,2.087 -15.115,1.079 -4.45,-0.973 -9.369,-3.991 -12.146,-6.748 -2.352,-2.335 -3.525,-5.387 -4.318,-8.097 -0.735,-2.51 -1.078,-4.721 -0.54,-7.557 0.674,-3.552 2.154,-9.025 5.398,-12.146 3.655,-3.516 10.97,-6.074 16.465,-7.018 z"
     style="opacity:1;isolation:auto;mix-blend-mode:normal;vector-effect:none;fill:#f4d679;fill-opacity:1;fill-rule:nonzero;stroke:none;stroke-width:2px;stroke-linecap:butt;stroke-linejoin:miter;stroke-miterlimit:4;stroke-dasharray:none;stroke-dashoffset:0px;stroke-opacity:1;paint-order:normal"
     id="path28"
     sodipodi:nodetypes="cccccccccccccccsccccccccccccccccccccccccccccccccccccccccscccccccccccccccccccccsscccccccccccccccccccscsccccccccccccsccccccccccccccccccccscccccccccccccccscccccscccccccccccccccsccccccccccccccccccccccccccccccccccccccscccc" />
  <g
     id="g36">
    <path
       d="M396.902,68.098C352.989,24.185,294.603,0,232.5,0S112.011,24.185,68.098,68.098C24.184,112.012,0,170.397,0,232.5 s24.184,120.488,68.098,164.402C112.011,440.815,170.397,465,232.5,465s120.489-24.185,164.402-68.098 C440.816,352.988,465,294.603,465,232.5S440.816,112.012,396.902,68.098z M232.5,450C112.57,450,15,352.43,15,232.5 S112.57,15,232.5,15S450,112.57,450,232.5S352.43,450,232.5,450z"
       id="path30" />
    <path
       d="M 412.439,300.259 H 287.35 c -0.116,-0.002 -0.231,-0.002 -0.347,0 h -31.253 -0.066 -40.869 l -4.874,-15 h 55.417 c 0.008,0 0.017,0.002 0.025,0.002 0.008,0 0.016,-0.002 0.025,-0.002 h 31.494 c 0.008,0 0.017,0.002 0.025,0.002 0.008,0 0.016,-0.002 0.025,-0.002 h 74.839 c 3.249,0 6.129,-2.092 7.133,-5.183 1.004,-3.09 -0.096,-6.476 -2.725,-8.385 l -60.611,-44.037 c -0.016,-0.012 -0.032,-0.023 -0.049,-0.035 l -25.473,-18.507 c -0.015,-0.011 -0.03,-0.022 -0.046,-0.033 l -53.015,-38.518 c -0.02,-0.015 -0.041,-0.03 -0.062,-0.045 L 211.485,152.02 c -0.02,-0.015 -0.041,-0.03 -0.061,-0.044 l -60.603,-44.031 c -2.628,-1.91 -6.188,-1.91 -8.816,0 -2.629,1.909 -3.729,5.295 -2.725,8.385 l 21.451,66.019 -12.76,9.271 -35.502,-109.266 c -0.775,-2.388 -2.694,-4.229 -5.111,-4.905 -2.419,-0.678 -5.013,-0.1 -6.915,1.539 C 55.675,117.532 30,173.484 30,232.5 c 0,15.714 1.816,31.391 5.397,46.595 0.576,2.443 2.336,4.438 4.689,5.312 0.848,0.314 1.731,0.469 2.61,0.469 1.562,0 3.109,-0.488 4.409,-1.433 l 101.186,-73.516 c 0.1,-0.068 0.197,-0.14 0.292,-0.213 l 25.221,-18.324 c 0.07,-0.048 0.137,-0.099 0.205,-0.148 l 32.97,-23.954 12.76,9.271 -44.758,32.52 c -0.018,0.013 -0.036,0.025 -0.054,0.039 l -25.467,18.503 -0.051,0.036 -60.61,44.036 c -2.629,1.909 -3.729,5.295 -2.725,8.385 1.004,3.091 3.884,5.183 7.133,5.183 h 69.417 l 43.164,132.847 C 144.356,409.385 91.594,371.063 64.2,315.261 l 104.7807,0 c 4.142,0 7.5,-3.96447 7.5,-7.5 0,-3.53553 -3.358,-7.5 -7.5,-7.5 l -116.4197,0 c -2.51,0 -4.854,1.256 -6.244,3.346 -1.39,2.089 -1.643,4.736 -0.674,7.051 14.166,33.829 37.326,63.24 66.979,85.054 30.214,22.228 65.93,35.579 103.287,38.61 0.203,0.017 0.405,0.024 0.607,0.024 2.282,0 4.455,-1.042 5.883,-2.85 1.555,-1.968 2.023,-4.583 1.249,-6.968 L 175.243,275.552 c -0.006,-0.02 -0.013,-0.039 -0.019,-0.059 l -12.631,-38.874 12.76,-9.271 17.093,52.608 c 0.009,0.029 0.019,0.059 0.028,0.088 l 9.724,29.927 c 0.005,0.017 0.011,0.032 0.016,0.049 l 23.153,71.257 c 1.004,3.091 3.884,5.183 7.133,5.183 3.249,0 6.129,-2.092 7.133,-5.183 l 21.45,-66.018 h 15.772 l -35.503,109.268 c -0.775,2.385 -0.307,5 1.249,6.968 1.429,1.808 3.601,2.85 5.883,2.85 0.202,0 0.405,-0.008 0.607,-0.024 37.357,-3.031 73.073,-16.383 103.287,-38.61 29.652,-21.813 52.813,-51.225 66.979,-85.054 0.969,-2.314 0.716,-4.962 -0.674,-7.051 -1.391,-2.091 -3.734,-3.347 -6.244,-3.347 z M 47.72,264.455 C 45.913,253.932 45,243.226 45,232.5 45,181.675 65.571,133.299 101.803,98.067 l 33.409,102.821 z m 254.687,-27.836 -10.93,33.64 h -15.772 l 13.943,-42.911 z m 4.841,33.64 7.918,-24.37 33.542,24.37 z m -133.757,-97.181 -12.812,-39.43 33.541,24.369 z m -15.739,97.181 h -41.46 l 33.542,-24.37 z m 74.748,-84.431 44.388,32.25 -16.955,52.181 h -54.866 l -16.955,-52.182 z m 0,168.86 -12.811,-39.43 h 25.623 z m 26.71,63.417 33.417,-102.847 h 108.17 c -27.393,55.803 -80.155,94.125 -141.587,102.847 z"
       id="path32"
       sodipodi:nodetypes="sccccccsssssssccccccccccccccccccsccscccccccccccccscccsassccccscccccccccccscccccsccscscscccccccccccccccccccccccccccccccccc" />
    <path
       d="m 364.557,78.988 c -1.902,-1.638 -4.499,-2.216 -6.915,-1.539 -2.417,0.677 -4.336,2.518 -5.111,4.905 l -35.502,109.264 -12.76,-9.271 21.451,-66.019 c 1.004,-3.09 -0.096,-6.476 -2.725,-8.385 -2.628,-1.91 -6.188,-1.91 -8.816,0 L 258.021,148.745 144.999,66.631 C 171.85,52.449 201.87,45 232.5,45 c 30.63,0 60.65,7.449 87.501,21.631 l -87.14376,63.29265 c -3.351,2.435 -4.094,7.125 -1.659,10.476 2.434,3.352 7.125,4.096 10.476,1.659 L 338.231,71.928 c 2.029,-1.474 3.188,-3.865 3.085,-6.371 -0.102,-2.506 -1.449,-4.796 -3.591,-6.101 C 306.101,40.186 269.714,30 232.5,30 c -37.214,0 -73.601,10.186 -105.225,29.456 -2.142,1.305 -3.489,3.595 -3.591,6.101 -0.102,2.506 1.056,4.897 3.085,6.371 l 126.84,92.155 c 0.001,0 0.001,0.001 0.001,0.001 l 37.433,27.197 c 10e-4,0.001 0.002,0.001 0.004,0.002 l 25.365,18.429 c 0.098,0.075 0.198,0.148 0.3,0.219 l 101.182,73.513 c 1.3,0.944 2.847,1.433 4.409,1.433 0.879,0 1.763,-0.154 2.61,-0.469 2.354,-0.874 4.114,-2.868 4.689,-5.312 C 433.184,263.891 435,248.214 435,232.5 435,173.484 409.325,117.532 364.557,78.988 Z m -60.237,54.659 -12.812,39.43 -20.729,-15.061 z M 417.28,264.455 329.788,200.889 363.197,98.068 C 399.429,133.299 420,181.675 420,232.5 c 0,10.726 -0.913,21.432 -2.72,31.955 z"
       id="path34"
       sodipodi:nodetypes="ccccccccccscccccccscsccccccccsccsccccccccsc" />
  </g>
  <path
     style="fill:#f4d679;fill-opacity:1;stroke:none;stroke-width:0.605874"
     d="m 195.06867,245.03812 c -4.88936,-15.05481 -8.82477,-27.42122 -8.74536,-27.48091 0.67669,-0.50864 40.84071,-29.65768 43.17627,-31.33517 l 3.04423,-2.18648 22.09953,16.0766 c 12.15474,8.84213 22.57296,16.41246 23.15159,16.82297 0.97153,0.68924 0.37209,2.84096 -7.83128,28.11087 l -8.88334,27.3645 h -28.56095 -28.56094 z"
     id="path636" />
  <path
     style="fill:#f4d679;fill-opacity:1;stroke-width:0.591692"
     d="m 46.631052,265.10999 c -0.157659,-0.54241 -0.748697,-4.4476 -1.313417,-8.6782 -1.408931,-10.55499 -1.41547,-34.24841 -0.01239,-44.89843 4.8827,-37.06197 18.378132,-69.37355 40.682053,-97.40339 4.823907,-6.06232 15.097902,-17.159054 15.886822,-17.159054 0.21745,0 1.39355,3.128574 2.61356,6.952374 2.46597,7.72898 11.77496,36.40807 23.76212,73.20621 4.34362,13.33404 7.84609,24.27333 7.78325,24.30952 -0.0628,0.0362 -20.13949,14.59885 -44.614794,32.36148 -34.199079,24.81954 -44.566908,32.06739 -44.787204,31.30949 z"
     id="path5355" />
</svg>
