<?xml version="1.0" encoding="UTF-8" standalone="no"?>
<!-- Uploaded to: SVG Repo, www.svgrepo.com, Generator: SVG Repo Mixer Tools -->

<svg
   fill="#000000"
   version="1.1"
   id="Capa_1"
   width="615.25104"
   height="860"
   viewBox="0 0 304.32624 425.38825"
   xml:space="preserve"
   sodipodi:docname="plaats.svg"
   inkscape:version="1.1.2 (b8e25be833, 2022-02-05)"
   xmlns:inkscape="http://www.inkscape.org/namespaces/inkscape"
   xmlns:sodipodi="http://sodipodi.sourceforge.net/DTD/sodipodi-0.dtd"
   xmlns="http://www.w3.org/2000/svg"
   xmlns:svg="http://www.w3.org/2000/svg"><defs
   id="defs3394" /><sodipodi:namedview
   id="namedview3392"
   pagecolor="#ffffff"
   bordercolor="#666666"
   borderopacity="1.0"
   inkscape:pageshadow="2"
   inkscape:pageopacity="0.0"
   inkscape:pagecheckerboard="0"
   showgrid="false"
   inkscape:zoom="0.519375"
   inkscape:cx="274.36823"
   inkscape:cy="421.66065"
   inkscape:window-width="1920"
   inkscape:window-height="1017"
   inkscape:window-x="-8"
   inkscape:window-y="-8"
   inkscape:window-maximized="1"
   inkscape:current-layer="Capa_1" />
<g
   id="g3389"
   style="fill:#e35a3e;fill-opacity:1;stroke:#000000;stroke-width:29.6782;stroke-miterlimit:4;stroke-dasharray:none;stroke-opacity:1"
   transform="translate(-45.691875,14.839125)">
	<path
   d="M 197.849,0 C 122.131,0 60.531,61.609 60.531,137.329 c 0,72.887 124.591,243.177 129.896,250.388 l 4.951,6.738 c 0.579,0.792 1.501,1.255 2.471,1.255 0.985,0 1.901,-0.463 2.486,-1.255 l 4.948,-6.738 C 210.591,380.506 335.179,210.216 335.179,137.329 335.179,61.609 273.569,0 197.849,0 Z m 0,88.138 c 27.13,0 49.191,22.062 49.191,49.191 0,27.115 -22.062,49.191 -49.191,49.191 -27.114,0 -49.191,-22.076 -49.191,-49.191 0,-27.129 22.076,-49.191 49.191,-49.191 z"
   id="path3387"
   style="fill:#e35a3e;fill-opacity:1;stroke:#000000;stroke-width:29.6782;stroke-miterlimit:4;stroke-dasharray:none;stroke-opacity:1" />
</g>
<path
   style="fill:#000000;fill-opacity:1;stroke:none;stroke-width:115.523;stroke-miterlimit:4;stroke-dasharray:none;stroke-opacity:1"
   d="m 285.09013,434.00554 c -46.68108,-9.1569 -85.51166,-43.24249 -99.43482,-87.28417 -21.16689,-66.95497 14.76298,-137.5108 81.97405,-160.97323 19.03733,-6.64567 51.94126,-7.55447 72.20796,-1.99438 23.65171,6.48875 40.11899,16.09659 57.91733,33.79189 25.30553,25.15901 37.41002,54.15296 37.35528,89.4774 -0.0345,22.28943 -3.72767,38.98745 -12.57933,56.87587 -25.23901,51.00576 -83.44843,80.69764 -137.44047,70.10662 z m 51.78901,-62.53117 c 13.58764,-6.09777 29.04318,-21.42772 35.29765,-35.01081 3.43767,-7.46573 4.21418,-12.68617 4.22452,-28.40098 0.0115,-16.85828 -0.62702,-20.61859 -5.12849,-30.2219 -6.55835,-13.99139 -19.95965,-27.3927 -33.95104,-33.95104 -9.6039,-4.50174 -13.3626,-5.13947 -30.2219,-5.12766 -17.43521,0.0121 -20.30468,0.54433 -30.37797,5.63323 -12.39568,6.26215 -25.90916,19.57276 -32.00801,31.52749 -2.21037,4.33267 -5.04513,13.86243 -6.29948,21.17723 -9.30498,54.26244 47.56351,97.21755 98.46472,74.37444 z"
   id="path3640"
   transform="scale(0.4946375)" /><path
   style="fill:#f4d679;fill-opacity:1;stroke:none;stroke-width:66.8333;stroke-miterlimit:4;stroke-dasharray:none;stroke-opacity:1"
   d="m 142.33363,190.44641 c -14.65371,-4.1497 -25.27732,-15.42276 -28.85374,-30.61761 -3.87086,-16.44584 5.82324,-35.38165 22.24159,-43.44521 5.36329,-2.63408 7.46332,-3.01188 16.71589,-3.0072 9.41162,0.005 11.23317,0.34787 16.46991,3.10224 8.41058,4.42373 13.8385,9.74636 18.10874,17.75747 7.06455,13.25337 5.56409,30.2147 -3.70869,41.92315 -9.62471,12.15284 -27.05198,18.22957 -40.9737,14.28716 z"
   id="path5594" /></svg>
