<?xml version="1.0" encoding="utf-8"?>
<svg width="800px" height="800px" viewBox="0 0 24 24" version="1.1" xmlns="http://www.w3.org/2000/svg">
  <title>mailbox_line</title>
  <path style="fill: rgb(244, 214, 121);" d="M 10.132 4.104 C 10.357 4.255 10.722 4.168 10.978 4.168 C 11.883 4.168 12.722 3.914 13.622 3.884 C 15.163 3.832 16.317 4.355 17.749 4.713 C 18.105 4.802 18.523 4.676 18.889 4.758 C 19.39 4.869 20.002 5.504 20.312 5.866 C 20.907 6.561 21.065 7.725 21.239 8.54 C 21.484 9.692 21.777 10.864 21.657 12.046 C 21.583 12.778 21.606 12.542 21.501 13.215 C 21.423 13.711 21.266 13.845 21.152 14.241 C 20.966 14.893 21.003 15.728 20.415 16.175 C 19.156 17.133 17.644 15.951 16.311 15.892 C 15.357 15.85 14.613 15.944 13.69 15.713 C 13.171 15.582 12.208 15.054 11.633 15.15 C 11.235 15.216 10.996 15.488 10.509 15.55 C 10.37 15.567 10.152 15.684 10.09 15.559 C 9.882 15.144 10.687 14.306 10.615 13.878 C 10.275 11.838 10.396 9.683 9.933 7.663 C 9.721 6.736 9.597 6.045 9.435 5.106 C 9.295 4.294 9.328 4.467 9.243 3.829 C 9.229 3.723 9.276 3.146 9.276 3.316"/>
  <path stroke-width="0" d="M 6.083 16.924 C 6.505 16.894 6.995 16.836 7.455 16.617 C 7.985 16.363 8.587 15.884 9.055 15.392 C 9.552 14.87 10.055 14.092 10.326 13.546 C 10.544 13.106 10.612 12.794 10.682 12.362 C 10.76 11.875 10.784 11.236 10.733 10.759 C 10.687 10.331 10.454 10.049 10.428 9.611 C 10.398 9.111 10.611 8.406 10.631 7.898 C 10.649 7.459 10.64 7.063 10.581 6.72 C 10.528 6.418 10.499 6.205 10.326 5.93 C 10.106 5.577 9.638 5.067 9.234 4.811 C 8.874 4.585 8.503 4.463 8.064 4.41 C 7.594 4.352 6.982 4.395 6.489 4.515 C 6.02 4.628 5.575 4.836 5.168 5.089 C 4.753 5.347 4.342 5.69 4.024 6.052 C 3.707 6.415 3.423 6.839 3.262 7.265 C 3.1 7.692 3.017 8.185 3.058 8.612 C 3.101 9.041 3.439 9.394 3.516 9.833 C 3.596 10.286 3.458 10.895 3.516 11.291 C 3.563 11.613 3.817 11.805 3.771 12.081 C 3.72 12.379 3.303 12.663 3.16 13.024 C 2.999 13.43 2.895 14.01 2.907 14.422 C 2.916 14.789 2.995 15.085 3.16 15.395 C 3.343 15.735 3.675 16.12 3.999 16.362 C 4.299 16.587 4.66 16.736 5.015 16.829 C 5.356 16.918 5.697 16.952 6.083 16.924 Z" style="stroke-width: 2px; fill: rgb(227, 90, 62); transform-box: fill-box; transform-origin: 50% 50%;" transform="matrix(0.997937, 0.064201, -0.064201, 0.997937, 0, 0)"/>
  <g id="页面-1" stroke="none" stroke-width="1" fill="none" fill-rule="evenodd">
    <g id="Contact" transform="translate(-912.000000, 0.000000)" fill-rule="nonzero">
      <g id="mailbox_line" transform="translate(912.000000, 0.000000)">
        <path d="M24,0 L24,24 L0,24 L0,0 L24,0 Z M12.5934901,23.257841 L12.5819402,23.2595131 L12.5108777,23.2950439 L12.4918791,23.2987469 L12.4918791,23.2987469 L12.4767152,23.2950439 L12.4056548,23.2595131 C12.3958229,23.2563662 12.3870493,23.2590235 12.3821421,23.2649074 L12.3780323,23.275831 L12.360941,23.7031097 L12.3658947,23.7234994 L12.3769048,23.7357139 L12.4804777,23.8096931 L12.4953491,23.8136134 L12.4953491,23.8136134 L12.5071152,23.8096931 L12.6106902,23.7357139 L12.6232938,23.7196733 L12.6232938,23.7196733 L12.6266527,23.7031097 L12.609561,23.275831 C12.6075724,23.2657013 12.6010112,23.2592993 12.5934901,23.257841 L12.5934901,23.257841 Z M12.8583906,23.1452862 L12.8445485,23.1473072 L12.6598443,23.2396597 L12.6498822,23.2499052 L12.6498822,23.2499052 L12.6471943,23.2611114 L12.6650943,23.6906389 L12.6699349,23.7034178 L12.6699349,23.7034178 L12.678386,23.7104931 L12.8793402,23.8032389 C12.8914285,23.8068999 12.9022333,23.8029875 12.9078286,23.7952264 L12.9118235,23.7811639 L12.8776777,23.1665331 C12.8752882,23.1545897 12.8674102,23.1470016 12.8583906,23.1452862 L12.8583906,23.1452862 Z M12.1430473,23.1473072 C12.1332178,23.1423925 12.1221763,23.1452606 12.1156365,23.1525954 L12.1099173,23.1665331 L12.0757714,23.7811639 C12.0751323,23.7926639 12.0828099,23.8018602 12.0926481,23.8045676 L12.108256,23.8032389 L12.3092106,23.7104931 L12.3186497,23.7024347 L12.3186497,23.7024347 L12.3225043,23.6906389 L12.340401,23.2611114 L12.337245,23.2485176 L12.337245,23.2485176 L12.3277531,23.2396597 L12.1430473,23.1473072 Z" id="MingCute" fill-rule="nonzero"/>
        <path d="M17.5,3 C19.9142914,3 21.8844901,4.90123781 21.9951021,7.28816441 L22,7.5 L22,15 C22,16.0543909 21.18415,16.9181678 20.1492661,16.9945144 L20,17 L17,17 L17,20 C17,20.5523 16.5523,21 16,21 C15.48715,21 15.0644908,20.613973 15.0067275,20.1166239 L15,20 L15,17 L4,17 C2.94563773,17 2.08183483,16.18415 2.00548573,15.1492661 L2,15 L2,7.5 C2,5.085728 3.90123781,3.11551099 6.28816441,3.00489799 L6.5,3 L17.5,3 Z M17.5,5 L10.2422,5 C10.67303,5.643545 10.942184,6.4044023 10.9917065,7.22451434 L11,7.5 L11,15 L20,15 L20,7.5 C20,6.1745184 18.9684531,5.08996147 17.6643744,5.00531769 L17.5,5 Z M6.5,5 C5.11929,5 4,6.11929 4,7.5 L4,15 L9,15 L9,7.5 C9,6.11929 7.88071,5 6.5,5 Z M7,8 C7.55228,8 8,8.44772 8,9 C8,9.51283143 7.61395571,9.93550653 7.11662025,9.9932722 L7,10 L6,10 C5.44772,10 5,9.55228 5,9 C5,8.48716857 5.38604429,8.06449347 5.88337975,8.0067278 L6,8 L7,8 Z" id="形状" style="fill: rgb(0, 0, 0);"/>
      </g>
    </g>
  </g>
  <path style="fill: rgb(216, 216, 216); stroke: rgb(0, 0, 0);" d="M 3.094 15.33 L 3.181 5.188"/>
</svg>