<?xml version="1.0" encoding="utf-8"?>
<svg width="800px" height="800px" viewBox="0 0 24 24" fill="none" xmlns="http://www.w3.org/2000/svg">
  <path style="stroke: rgb(0, 0, 0); fill: rgb(244, 214, 121);" d="M 7.251 12.576 C 7.756 12.661 8.684 12.433 9.08 12.721 C 9.548 13.062 9.865 13.567 10.188 14.036 C 10.379 14.314 10.519 14.642 10.909 14.681 C 11.874 14.778 12.87 14.557 13.663 14.002 C 14.126 13.678 14.38 13.194 14.957 13.002 C 15.485 12.826 16.927 13.413 17.316 13.725 C 17.592 13.945 17.406 14.856 17.376 15.171 C 17.305 15.914 17.101 16.686 17.185 17.439 C 17.243 17.962 17.461 18.511 17.584 19.019 C 17.661 19.338 17.725 19.658 17.788 19.98 C 17.813 20.109 18.265 19.431 18.397 19.431 C 18.655 19.431 18.462 19.881 18.693 19.758 C 19.02 19.584 19.361 19.488 19.667 19.283 C 20.551 18.694 21.054 17.166 21.259 16.243 C 21.349 15.837 21.473 15.332 21.354 14.914 C 21.259 14.581 20.971 14.37 20.844 14.062 C 20.574 13.405 20.625 12.665 19.915 12.289 C 19.074 11.843 17.826 12.73 17.441 11.474 C 16.897 9.697 17.983 7.789 17.144 6.11 C 16.833 5.489 16.66 4.747 15.838 4.63 C 15.145 4.531 14.338 4.84 13.622 4.819 C 12.09 4.775 10.662 4.615 9.118 4.777 C 8.66 4.825 8.201 4.812 7.739 4.812 C 7.637 4.812 7.333 4.73 7.251 4.784 C 7.222 4.804 7.254 5.102 7.251 5.147 C 7.233 5.373 7.151 5.608 7.092 5.824 C 6.828 6.8 6.753 7.645 6.872 8.693 C 6.926 9.171 7.13 9.953 7.066 10.472 C 7.02 10.835 6.849 11.752 6.507 11.98 C 5.525 12.635 3.977 12.176 3.061 12.909 C 2.804 13.115 3.277 14.126 3.264 14.368 C 3.197 15.61 3.291 16.654 3.532 17.863 C 3.61 18.252 3.577 18.925 3.968 19.186 C 4.236 19.364 4.543 19.441 4.855 19.493 C 5.258 19.561 5.89 19.629 6.274 19.437 C 7.053 19.047 6.917 17.539 6.974 16.876 C 7.008 16.484 7.041 16.092 7.062 15.7 C 7.114 14.756 7.155 13.81 7.133 12.864 C 7.129 12.683 7.118 12.14 7.118 12.321"/>
  <path style="fill: rgb(235, 152, 91);" d="M 10.626 11.296 C 11.358 11.081 12.851 10.482 13.565 11.066 C 14.229 11.61 13.632 12.797 13.505 13.492 C 13.481 13.628 13.531 14.182 13.332 14.267 C 12.448 14.646 11.187 13.676 10.257 13.676"/>
  <path stroke="rgb(255,0,0)" stroke-width="0" opacity="0.9921568627450981" d="M 8.088 12.967 C 8.384 12.953 8.763 12.996 9.057 13.122 C 9.352 13.247 9.65 13.479 9.851 13.722 C 10.047 13.959 10.039 14.424 10.258 14.556 C 10.474 14.685 10.92 14.512 11.149 14.517 C 11.314 14.52 11.355 14.586 11.537 14.556 C 11.848 14.503 12.498 14.247 12.932 14.013 C 13.363 13.781 13.729 13.317 14.134 13.16 C 14.492 13.021 14.916 13.018 15.219 13.044 C 15.465 13.066 15.632 13.123 15.839 13.238 C 16.078 13.371 16.372 13.596 16.556 13.839 C 16.74 14.081 16.871 14.383 16.943 14.691 C 17.019 15.014 17.002 15.436 16.982 15.738 C 16.966 15.99 16.879 16.176 16.866 16.396 C 16.853 16.615 16.942 16.79 16.905 17.055 C 16.854 17.412 16.662 18.012 16.478 18.373 C 16.321 18.682 16.151 18.932 15.916 19.129 C 15.68 19.326 15.337 19.481 15.064 19.555 C 14.823 19.621 14.661 19.62 14.366 19.594 C 13.949 19.556 13.162 19.407 12.738 19.245 C 12.407 19.118 12.221 18.853 11.963 18.78 C 11.731 18.714 11.484 18.815 11.266 18.78 C 11.059 18.747 10.875 18.553 10.684 18.586 C 10.474 18.623 10.329 18.947 10.064 19.051 C 9.747 19.176 9.199 19.235 8.863 19.206 C 8.587 19.183 8.382 19.099 8.165 18.974 C 7.935 18.84 7.728 18.651 7.526 18.412 C 7.291 18.133 7.063 17.824 6.867 17.365 C 6.607 16.758 6.24 15.514 6.208 14.962 C 6.188 14.621 6.268 14.459 6.363 14.226 C 6.46 13.987 6.618 13.728 6.789 13.548 C 6.95 13.379 7.141 13.257 7.351 13.16 C 7.571 13.06 7.82 12.978 8.088 12.967 Z M 4.976 4.992 C 5.322 4.923 5.731 4.947 6.061 5.07 C 6.397 5.195 6.759 5.498 6.972 5.748 C 7.155 5.963 7.25 6.204 7.321 6.446 C 7.39 6.682 7.422 6.888 7.398 7.182 C 7.367 7.565 7.103 8.159 7.049 8.577 C 7.004 8.934 7.083 9.233 7.049 9.546 C 7.017 9.852 6.984 10.127 6.855 10.437 C 6.705 10.8 6.41 11.323 6.138 11.581 C 5.915 11.793 5.672 11.896 5.402 11.968 C 5.119 12.044 4.743 12.048 4.472 12.007 C 4.236 11.971 4.052 11.896 3.852 11.775 C 3.631 11.641 3.373 11.419 3.212 11.213 C 3.064 11.022 2.967 10.822 2.902 10.592 C 2.833 10.347 2.803 10.036 2.825 9.779 C 2.846 9.533 3.008 9.236 3.019 9.081 C 3.025 8.989 2.985 8.936 2.98 8.887 C 2.976 8.854 2.975 8.868 2.98 8.81 C 2.997 8.605 3.096 7.484 3.212 6.988 C 3.304 6.595 3.42 6.28 3.561 6.019 C 3.679 5.801 3.772 5.653 3.968 5.496 C 4.211 5.302 4.624 5.062 4.976 4.992 Z M 18.275 4.747 C 18.58 4.69 18.847 4.724 19.127 4.824 C 19.436 4.935 19.802 5.164 20.038 5.425 C 20.274 5.687 20.389 5.998 20.542 6.394 C 20.733 6.888 20.936 7.575 21.046 8.216 C 21.161 8.889 21.256 9.825 21.201 10.347 C 21.162 10.709 21.061 10.927 20.929 11.161 C 20.805 11.382 20.646 11.568 20.445 11.723 C 20.231 11.888 19.938 12.04 19.67 12.111 C 19.408 12.179 19.104 12.18 18.856 12.149 C 18.63 12.121 18.44 12.068 18.236 11.956 C 18.006 11.829 17.779 11.682 17.558 11.394 C 17.251 10.994 16.825 10.136 16.666 9.611 C 16.54 9.192 16.53 8.791 16.55 8.487 C 16.566 8.25 16.699 8.15 16.705 7.906 C 16.713 7.573 16.463 6.985 16.472 6.627 C 16.48 6.337 16.559 6.114 16.666 5.89 C 16.773 5.668 16.89 5.465 17.112 5.289 C 17.387 5.071 17.916 4.814 18.275 4.747 Z" style="fill: rgb(227, 90, 62); fill-opacity: 1; fill-rule: nonzero; stroke: none; stroke-dasharray: none; stroke-dashoffset: 0px; stroke-linecap: butt; stroke-linejoin: miter; stroke-miterlimit: 4; stroke-opacity: 1; stroke-width: 2px; paint-order: normal; vector-effect: none; opacity: 1; mix-blend-mode: normal; isolation: auto;" fill="rgb(255,0,0)"/>
  <path d="M21 12.4984L14 12.4984M3 12.4984L10 12.4984M7 4.5V19.4984M17 4.5V19.4984M6.2 19.5H17.8C18.9201 19.5 19.4802 19.5 19.908 19.282C20.2843 19.0903 20.5903 18.7843 20.782 18.408C21 17.9802 21 17.4201 21 16.3V10.9C21 8.65979 21 7.53968 20.564 6.68404C20.1805 5.93139 19.5686 5.31947 18.816 4.93597C17.9603 4.5 16.8402 4.5 14.6 4.5H9.4C7.15979 4.5 6.03968 4.5 5.18404 4.93597C4.43139 5.31947 3.81947 5.93139 3.43597 6.68404C3 7.53968 3 8.65979 3 10.9V16.3C3 17.4201 3 17.9802 3.21799 18.408C3.40973 18.7843 3.71569 19.0903 4.09202 19.282C4.51984 19.5 5.07989 19.5 6.2 19.5ZM10 10.4984H14V14.4984H10V10.4984Z" stroke="#000000" stroke-width="2" stroke-linejoin="round"/>
</svg>