<?xml version="1.0" encoding="UTF-8" standalone="no"?>
<!-- Uploaded to: SVG Repo, www.svgrepo.com, Generator: SVG Repo Mixer Tools -->

<svg
   fill="#000000"
   width="800px"
   height="800px"
   viewBox="0 0 512 512"
   id="_x30_1"
   version="1.1"
   xml:space="preserve"
   sodipodi:docname="site.svg"
   inkscape:version="1.1.2 (b8e25be833, 2022-02-05)"
   xmlns:inkscape="http://www.inkscape.org/namespaces/inkscape"
   xmlns:sodipodi="http://sodipodi.sourceforge.net/DTD/sodipodi-0.dtd"
   xmlns="http://www.w3.org/2000/svg"
   xmlns:svg="http://www.w3.org/2000/svg"><defs
     id="defs5732" /><sodipodi:namedview
     id="namedview5730"
     pagecolor="#ffffff"
     bordercolor="#666666"
     borderopacity="1.0"
     inkscape:pageshadow="2"
     inkscape:pageopacity="0.0"
     inkscape:pagecheckerboard="0"
     showgrid="false"
     inkscape:zoom="0.73450717"
     inkscape:cx="199.45347"
     inkscape:cy="398.90693"
     inkscape:window-width="1920"
     inkscape:window-height="1017"
     inkscape:window-x="-8"
     inkscape:window-y="-8"
     inkscape:window-maximized="1"
     inkscape:current-layer="_x30_1" /><path
     d="M 256,16.555318 C 123.75826,16.555318 16.555318,123.75826 16.555318,256 16.555318,388.24174 123.75826,495.44468 256,495.44468 388.24174,495.44468 495.44468,388.24174 495.44468,256 495.44468,123.75826 388.24174,16.555318 256,16.555318 Z"
     id="path5727"
     style="fill:#000000;fill-opacity:1;stroke-width:0.276559;stroke-miterlimit:4;stroke-dasharray:none"
     sodipodi:nodetypes="sssss" /><path
     style="fill:#e35a3e;fill-opacity:1;stroke:#000000;stroke-width:0.399714;stroke-miterlimit:4;stroke-dasharray:none;stroke-opacity:1"
     d="m 173.07438,311.22132 c -3.26193,-35.542 -3.43269,-66.90874 -0.55903,-102.68906 l 1.26372,-15.73462 h 81.99574 81.99572 l 0.64778,4.1407 c 3.71977,23.77687 3.75486,96.42214 0.0571,118.14763 l -0.6108,3.58859 H 255.8115 173.75842 l -0.68403,-7.45324 z"
     id="path6530" /><path
     style="fill:#e35a3e;fill-opacity:1;stroke:#000000;stroke-width:0.553905;stroke-miterlimit:4;stroke-dasharray:none;stroke-opacity:1"
     d="m 70.697174,167.68045 c 0,-1.83307 17.073735,-23.36749 28.570647,-36.035 12.016159,-13.23965 27.093499,-27.55845 40.697389,-38.649909 7.77725,-6.34091 42.85755,-30.098064 43.49788,-29.457718 0.21012,0.21011 -2.72614,8.261323 -6.52501,17.891564 -8.13314,20.617753 -18.71119,53.073573 -23.78461,72.976543 l -3.60786,14.15364 h -39.42423 c -21.683306,0 -39.424206,-0.3956 -39.424206,-0.87912 z"
     id="path6645" /><path
     style="fill:#e35a3e;fill-opacity:1;stroke:#000000;stroke-width:0.529833;stroke-miterlimit:4;stroke-dasharray:none;stroke-opacity:1"
     d="M 164.32762,435.92058 C 143.03767,421.62098 132.64405,413.29253 115.5238,396.8138 102.13491,383.9266 78.132142,356.08586 74.181727,348.86122 c -1.317522,-2.40954 0.848738,-2.56135 36.547633,-2.56135 h 37.94816 l 2.54011,10.6113 c 5.63765,23.55124 19.03378,63.11049 29.4903,87.08588 1.4659,3.36111 -1.60791,1.84553 -16.38031,-8.07647 z"
     id="path6723" /><path
     style="fill:#e35a3e;fill-opacity:1;stroke:#000000;stroke-width:0.556167;stroke-miterlimit:4;stroke-dasharray:none;stroke-opacity:1"
     d="m 328.18992,447.68162 c 0,-0.43526 2.71677,-7.6106 6.03729,-15.94523 9.58511,-24.0591 17.84901,-49.74449 26.1621,-81.31551 l 1.71932,-6.52959 h 39.96475 39.96476 l -4.26782,5.7614 c -18.99607,25.64414 -43.29964,51.34082 -64.20327,67.88347 -17.62488,13.94791 -45.37713,32.38462 -45.37713,30.14546 z"
     id="path6762" /><path
     style="fill:#e35a3e;fill-opacity:1;stroke:#000000;stroke-width:0.526154;stroke-miterlimit:4;stroke-dasharray:none;stroke-opacity:1"
     d="m 361.66817,159.50761 c -7.53043,-29.31381 -19.14594,-64.954673 -27.58602,-84.644585 -1.64365,-3.834483 -2.67586,-7.284369 -2.29381,-7.666424 1.01459,-1.014597 18.37928,10.155253 34.21798,22.010747 23.3582,17.483952 53.39395,48.189632 68.22712,69.748912 l 4.62939,6.72858 h -37.80389 -37.80391 z"
     id="path6801" /><path
     style="fill:#f4d679;fill-opacity:1;stroke:#000000;stroke-width:0.45035;stroke-miterlimit:4;stroke-dasharray:none;stroke-opacity:1"
     d="m 54.955246,325.64435 c -1.114409,-1.83272 -5.61723,-24.77845 -7.140863,-36.38876 -1.985823,-15.13229 -2.019089,-50.67357 -0.06173,-65.93521 1.504109,-11.7275 6.121057,-35.84248 7.205008,-37.63282 0.31071,-0.51317 20.757984,-0.93303 45.438409,-0.93303 h 44.87349 l -0.84748,8.60071 c -3.01875,30.63564 -2.99762,99.20264 0.0389,126.0688 l 0.80851,7.15334 h -44.87352 c -24.680395,0 -45.128748,-0.41986 -45.440791,-0.93303 z"
     id="path6957" /><path
     style="fill:#f4d679;fill-opacity:1;stroke:#000000;stroke-width:0.439687;stroke-miterlimit:4;stroke-dasharray:none;stroke-opacity:1"
     d="m 182.53708,160.58999 c 0.36008,-1.16905 1.81896,-5.95156 3.24195,-10.62779 7.28588,-23.94278 21.65434,-54.94461 34.06973,-73.509954 8.25612,-12.345764 20.38757,-25.104033 28.25454,-29.71437 6.76968,-3.967305 10.46496,-3.62562 18.17757,1.680789 21.20786,14.5914 44.87804,54.952485 59.72933,101.847195 l 3.94275,12.4497 h -74.03529 c -69.94947,0 -73.99917,-0.11728 -73.38058,-2.12557 z"
     id="path7033" /><path
     style="fill:#f4d679;fill-opacity:1;stroke:#000000;stroke-width:0.461835;stroke-miterlimit:4;stroke-dasharray:none;stroke-opacity:1"
     d="m 248.08138,468.01835 c -16.69837,-9.78224 -36.79445,-37.6061 -51.69536,-71.57442 -4.22111,-9.62252 -17.83505,-47.24543 -17.83505,-49.28821 0,-0.25712 34.73331,-0.46751 77.18513,-0.46751 62.38436,0 77.18513,0.31727 77.18513,1.6545 0,2.56966 -9.32327,29.61179 -14.53239,42.15116 -14.2536,34.31127 -34.22754,63.94481 -50.62166,75.10284 -9.68072,6.58881 -12.07058,6.88279 -19.6858,2.42164 z"
     id="path7072" /><path
     style="fill:#f4d679;fill-opacity:1;stroke:#000000;stroke-width:0.42023;stroke-miterlimit:4;stroke-dasharray:none;stroke-opacity:1"
     d="m 372.02836,305.94318 c 1.22938,-20.35433 0.94504,-92.8763 -0.41644,-106.21845 l -1.03652,-10.1575 h 42.00369 42.00369 l 1.86755,7.83579 c 5.11448,21.45912 5.88405,29.24787 5.82101,58.91351 -0.0526,24.72304 -0.43955,31.07938 -2.613,42.91603 -1.40323,7.64203 -3.08315,15.86961 -3.73314,18.2835 l -1.18181,4.38891 H 412.90385 371.0643 Z"
     id="path7111" /></svg>
