<?xml version="1.0" encoding="UTF-8" standalone="no"?>
<!-- Generator: Adobe Illustrator 24.1.2, SVG Export Plug-In . SVG Version: 6.00 Build 0)  -->

<svg
   version="1.1"
   x="0px"
   y="0px"
   viewBox="0 0 50 50"
   style="enable-background:new 0 0 50 50;"
   xml:space="preserve"
   id="svg35"
   sodipodi:docname="telefoon.svg"
   inkscape:version="1.1.2 (b8e25be833, 2022-02-05)"
   xmlns:inkscape="http://www.inkscape.org/namespaces/inkscape"
   xmlns:sodipodi="http://sodipodi.sourceforge.net/DTD/sodipodi-0.dtd"
   xmlns="http://www.w3.org/2000/svg"
   xmlns:svg="http://www.w3.org/2000/svg"><defs
   id="defs39" /><sodipodi:namedview
   id="namedview37"
   pagecolor="#ffffff"
   bordercolor="#666666"
   borderopacity="1.0"
   inkscape:pageshadow="2"
   inkscape:pageopacity="0.0"
   inkscape:pagecheckerboard="0"
   showgrid="false"
   inkscape:zoom="8.08"
   inkscape:cx="-14.418317"
   inkscape:cy="27.846535"
   inkscape:window-width="1920"
   inkscape:window-height="1017"
   inkscape:window-x="-8"
   inkscape:window-y="-8"
   inkscape:window-maximized="1"
   inkscape:current-layer="ios_x5F_filled" />
<g
   id="nintendo_switch">
</g>
<g
   id="settings">
</g>
<g
   id="camera">
</g>
<g
   id="shazam">
</g>
<g
   id="ios_x5F_out">
</g>
<g
   id="ios_x5F_filled">
	<path
   style="fill:none;stroke:#000000;stroke-width:6;stroke-miterlimit:10;stroke-opacity:1;stroke-dasharray:none"
   d="M36,44.99H14c-4.971,0-9-4.029-9-9v-22   c0-4.971,4.029-9,9-9h22c4.971,0,9,4.029,9,9v22C45,40.961,40.971,44.99,36,44.99z"
   id="path30" />
	<path
   d="M 36,44.99 H 14 c -4.971,0 -9,-4.029 -9,-9 v -22 c 0,-4.971 4.029,-9 9,-9 h 22 c 4.971,0 9,4.029 9,9 v 22 c 0,4.971 -4.029,9 -9,9 z"
   id="path32"
   style="fill:#e35a3e;fill-opacity:1"
   sodipodi:nodetypes="sssssssss" />
<path
   style="fill:#f4d679;fill-opacity:1;stroke:#000000;stroke-width:3.34792;stroke-miterlimit:4;stroke-dasharray:none;stroke-opacity:1"
   d="M 33.634339,41.134771 C 27.23026,40.059035 20.058974,35.391544 14.930099,28.960968 10.919057,23.931933 8.7099104,18.530031 8.6406039,13.58163 c -0.030027,-2.144444 0.173496,-2.694274 1.4815391,-4.0023173 1.805359,-1.8053581 5.095249,-2.5079173 6.544925,-1.3976765 0.4675,0.35804 2.844928,3.9081418 3.529015,5.2697168 0.400393,0.796923 0.50606,2.338133 0.222747,3.24885 -0.130961,0.420995 -0.817255,1.614599 -1.525085,2.652451 -1.609602,2.360072 -1.688669,2.945916 -0.671646,4.976465 1.595857,3.186228 4.166858,5.784486 7.317067,7.394629 1.537038,0.785618 2.349125,0.939418 3.217331,0.609327 0.227955,-0.08668 1.06485,-0.619808 1.859768,-1.184755 1.919263,-1.364015 2.640176,-1.67488 3.894657,-1.67942 1.429868,-0.0052 2.186032,0.309882 4.778207,1.990827 2.895982,1.877954 3.079773,2.127363 2.99125,4.059278 -0.08003,1.746735 -0.700079,3.22285 -1.822908,4.339732 -1.220723,1.214255 -2.06162,1.543151 -3.894057,1.523061 -0.858181,-0.0094 -2.176266,-0.120571 -2.929075,-0.247027 z"
   id="path1508" /></g>
</svg>
