<?xml version="1.0" encoding="utf-8"?>
<svg width="800px" height="800px" viewBox="0 0 24 24" fill="none" xmlns="http://www.w3.org/2000/svg">
  <path fill="rgb(255,0,0)" stroke="rgb(255,0,0)" stroke-width="0" opacity="0.996078431372549" d="M 16.347 3.883 C 17.132 3.838 18.206 4.233 18.814 4.242 C 19.227 4.248 19.469 4.086 19.756 4.107 C 20.017 4.127 20.251 4.207 20.474 4.332 C 20.709 4.463 20.955 4.676 21.124 4.892 C 21.289 5.103 21.415 5.348 21.483 5.61 C 21.554 5.884 21.612 6.189 21.528 6.507 C 21.426 6.891 20.927 7.585 20.788 7.741 C 20.734 7.801 20.698 7.744 20.675 7.808 C 20.62 7.964 20.779 8.608 20.765 9.019 C 20.751 9.444 20.704 9.787 20.586 10.32 C 20.425 11.047 20.183 12.157 19.778 13.057 C 19.348 14.013 18.599 15.1 18.029 15.883 C 17.549 16.542 17.034 17.183 16.616 17.52 C 16.32 17.758 16.063 17.852 15.808 17.924 C 15.588 17.986 15.503 17.855 15.18 17.969 C 14.495 18.211 12.382 19.735 11.591 20.033 C 11.152 20.198 11.048 20.159 10.649 20.167 C 10.095 20.178 8.965 19.92 8.496 19.988 C 8.207 20.029 8.135 20.203 7.913 20.257 C 7.664 20.317 7.328 20.335 7.061 20.302 C 6.806 20.27 6.574 20.209 6.343 20.077 C 6.086 19.931 5.787 19.681 5.603 19.427 C 5.423 19.179 5.301 18.854 5.244 18.575 C 5.19 18.316 5.159 18.1 5.244 17.812 C 5.356 17.43 5.792 16.753 6.029 16.489 C 6.181 16.318 6.411 16.301 6.455 16.197 C 6.488 16.119 6.445 16.064 6.388 15.95 C 6.284 15.745 5.862 15.387 5.737 15.031 C 5.604 14.653 5.735 14.04 5.647 13.73 C 5.586 13.511 5.535 13.423 5.378 13.259 C 5.155 13.026 4.587 12.825 4.302 12.518 C 4.022 12.217 3.816 11.883 3.674 11.442 C 3.504 10.916 3.675 10.043 3.449 9.513 C 3.245 9.031 2.644 8.753 2.462 8.347 C 2.302 7.986 2.258 7.593 2.328 7.225 C 2.402 6.837 2.671 6.358 2.933 6.081 C 3.169 5.833 3.484 5.677 3.786 5.588 C 4.083 5.5 4.437 5.493 4.728 5.543 C 5.003 5.59 5.225 5.68 5.49 5.857 C 5.824 6.079 6.293 6.561 6.545 6.866 C 6.739 7.102 6.754 7.459 6.948 7.517 C 7.156 7.579 7.494 7.217 7.778 7.158 C 8.03 7.105 8.29 7.099 8.551 7.143 C 8.564 7.238 8.585 7.332 8.611 7.428 C 8.685 7.703 8.855 8.023 9.014 8.235 C 9.153 8.42 9.293 8.548 9.485 8.661 C 9.697 8.786 9.944 8.897 10.248 8.931 C 10.622 8.971 11.198 8.939 11.594 8.796 C 11.971 8.66 12.301 8.427 12.581 8.123 C 12.587 8.117 12.593 8.11 12.599 8.103 C 12.544 7.983 12.5 7.858 12.467 7.737 C 12.395 7.463 12.341 7.191 12.422 6.884 C 12.522 6.51 12.757 6.001 13.153 5.659 C 13.13 5.608 13.105 5.556 13.079 5.506 C 13.203 5.285 13.36 5.075 13.52 4.915 C 13.719 4.715 13.867 4.608 14.193 4.466 C 14.682 4.254 15.595 3.926 16.347 3.883 Z" style="fill: rgb(227, 90, 62); fill-opacity: 1; fill-rule: nonzero; stroke: none; stroke-dasharray: none; stroke-dashoffset: 0px; stroke-linecap: butt; stroke-linejoin: miter; stroke-miterlimit: 4; stroke-opacity: 1; stroke-width: 2px; paint-order: normal; vector-effect: none; opacity: 1; mix-blend-mode: normal; isolation: auto;"/>
  <path fill-rule="evenodd" clip-rule="evenodd" d="M19.7828 3.91825C20.1313 3.83565 20.3743 3.75444 20.5734 3.66915C20.8524 3.54961 21.0837 3.40641 21.4492 3.16524C21.7563 2.96255 22.1499 2.9449 22.4739 3.11928C22.7979 3.29366 23 3.6319 23 3.99986C23 5.08079 22.8653 5.96673 22.5535 6.7464C22.2911 7.40221 21.9225 7.93487 21.4816 8.41968C21.2954 11.7828 20.3219 14.4239 18.8336 16.4248C17.291 18.4987 15.2386 19.8268 13.0751 20.5706C10.9179 21.3121 8.63863 21.4778 6.5967 21.2267C4.56816 20.9773 2.69304 20.3057 1.38605 19.2892C1.02813 19.0108 0.902313 18.5264 1.07951 18.109C1.25671 17.6916 1.69256 17.4457 2.14144 17.5099C3.42741 17.6936 4.6653 17.4012 5.6832 16.9832C5.48282 16.8742 5.29389 16.7562 5.11828 16.6346C4.19075 15.9925 3.4424 15.1208 3.10557 14.4471C2.96618 14.1684 2.96474 13.8405 3.10168 13.5606C3.17232 13.4161 3.27562 13.293 3.40104 13.1991C2.04677 12.0814 1.49999 10.5355 1.49999 9.49986C1.49999 9.19192 1.64187 8.90115 1.88459 8.71165C1.98665 8.63197 2.10175 8.57392 2.22308 8.53896C2.12174 8.24222 2.0431 7.94241 1.98316 7.65216C1.71739 6.3653 1.74098 4.91284 2.02985 3.75733C2.1287 3.36191 2.45764 3.06606 2.86129 3.00952C3.26493 2.95299 3.6625 3.14709 3.86618 3.50014C4.94369 5.36782 6.93116 6.50943 8.78086 7.18568C9.6505 7.50362 10.4559 7.70622 11.0596 7.83078C11.1899 6.61019 11.5307 5.6036 12.0538 4.80411C12.7439 3.74932 13.7064 3.12525 14.74 2.84698C16.5227 2.36708 18.5008 2.91382 19.7828 3.91825ZM10.7484 9.80845C10.0633 9.67087 9.12171 9.43976 8.09412 9.06408C6.7369 8.56789 5.16088 7.79418 3.84072 6.59571C3.86435 6.81625 3.89789 7.03492 3.94183 7.24766C4.16308 8.31899 4.5742 8.91899 4.94721 9.10549C5.40342 9.3336 5.61484 9.8685 5.43787 10.3469C5.19827 10.9946 4.56809 11.0477 3.99551 10.9046C4.45603 11.595 5.28377 12.2834 6.66439 12.5135C7.14057 12.5929 7.49208 13.0011 7.49986 13.4838C7.50765 13.9665 7.16949 14.3858 6.69611 14.4805L5.82565 14.6546C5.95881 14.7703 6.103 14.8838 6.2567 14.9902C6.95362 15.4727 7.65336 15.6808 8.25746 15.5298C8.70991 15.4167 9.18047 15.6313 9.39163 16.0472C9.60278 16.463 9.49846 16.9696 9.14018 17.2681C8.49626 17.8041 7.74425 18.2342 6.99057 18.5911C6.63675 18.7587 6.24134 18.9241 5.8119 19.0697C6.14218 19.1402 6.48586 19.198 6.84078 19.2417C8.61136 19.4594 10.5821 19.3126 12.4249 18.6792C14.2614 18.0479 15.9589 16.9385 17.2289 15.2312C18.497 13.5262 19.382 11.1667 19.5007 7.96291C19.51 7.71067 19.6144 7.47129 19.7929 7.29281C20.2425 6.84316 20.6141 6.32777 20.7969 5.7143C20.477 5.81403 20.1168 5.90035 19.6878 5.98237C19.3623 6.04459 19.0272 5.94156 18.7929 5.70727C18.0284 4.94274 16.5164 4.43998 15.2599 4.77822C14.6686 4.93741 14.1311 5.28203 13.7274 5.89906C13.3153 6.52904 13 7.51045 13 8.9999C13 9.28288 12.8801 9.5526 12.6701 9.74221C12.1721 10.1917 11.334 9.92603 10.7484 9.80845Z" fill="#0F0F0F"/>
</svg>