<?xml version="1.0" encoding="utf-8"?>
<svg width="800px" height="800px" viewBox="0 0 24 24" fill="none" xmlns="http://www.w3.org/2000/svg">
  <path style="stroke: rgb(0, 0, 0); fill: rgb(244, 214, 121);" d="M 9.541 8.486 C 10.324 9.389 11.739 9.471 12.781 9.932 C 13.208 10.12 13.418 10.578 13.763 10.865 C 14.036 11.092 14.76 11.219 14.894 11.576 C 15.038 11.959 14.469 12.493 14.288 12.73 C 13.895 13.244 13.375 13.283 12.805 13.511 C 12.117 13.786 11.434 14.129 10.742 14.414 C 10.458 14.531 9.563 15.083 9.263 14.858 C 9.002 14.662 9.182 13.716 9.182 13.374 C 9.182 12.367 9.414 11.467 9.474 10.452 C 9.504 9.96 9.321 9.458 9.321 9.013"/>
  <path fill="rgb(255,0,0)" stroke="rgb(255,0,0)" stroke-width="0" opacity="0.996078431372549" d="M 16.9 3.706 C 17.291 3.616 17.793 3.665 18.2 3.706 C 18.582 3.745 18.868 3.828 19.277 3.931 C 19.772 4.055 20.554 4.216 20.982 4.424 C 21.312 4.585 21.534 4.781 21.722 4.985 C 21.888 5.166 21.957 5.279 22.081 5.568 C 22.279 6.03 22.592 7.013 22.709 7.677 C 22.814 8.276 22.794 8.735 22.799 9.381 C 22.804 10.152 22.636 11.145 22.709 12.028 C 22.783 12.924 23.16 14.018 23.247 14.72 C 23.31 15.225 23.361 15.445 23.292 15.931 C 23.201 16.578 22.855 17.723 22.574 18.308 C 22.365 18.745 22.176 19.016 21.879 19.273 C 21.574 19.536 21.194 19.71 20.757 19.856 C 20.257 20.024 19.608 20.021 19.008 20.17 C 18.37 20.329 17.534 20.7 17.034 20.798 C 16.691 20.865 16.623 20.873 16.227 20.843 C 15.529 20.789 13.914 20.358 12.952 20.26 C 12.143 20.177 11.587 20.198 10.799 20.215 C 9.903 20.234 8.939 20.473 7.838 20.394 C 6.545 20.302 4.41 19.871 3.486 19.542 C 2.925 19.342 2.68 19.194 2.387 18.891 C 2.085 18.579 1.871 18.143 1.714 17.68 C 1.542 17.169 1.473 16.698 1.445 15.931 C 1.404 14.812 1.857 12.239 1.714 11.4 C 1.641 10.968 1.393 10.915 1.311 10.637 C 1.225 10.349 1.176 10.033 1.221 9.695 C 1.272 9.308 1.638 8.847 1.67 8.439 C 1.699 8.056 1.432 7.642 1.445 7.318 C 1.457 7.043 1.535 6.834 1.67 6.6 C 1.823 6.332 2.095 6.075 2.365 5.815 C 2.663 5.528 2.984 5.189 3.397 4.962 C 3.851 4.713 4.137 4.564 5.012 4.424 C 6.702 4.155 12.055 3.965 13.849 4.065 C 14.827 4.12 15.478 4.499 15.756 4.424 C 15.883 4.39 15.811 4.282 15.913 4.2 C 16.091 4.057 16.533 3.791 16.9 3.706 Z M 10.328 8.282 C 9.973 8.256 8.572 8.241 8.399 8.417 C 8.304 8.512 8.508 8.619 8.533 8.82 C 8.576 9.164 8.558 9.914 8.488 10.435 C 8.421 10.945 8.158 11.334 8.129 11.916 C 8.095 12.634 8.214 13.855 8.443 14.473 C 8.614 14.931 8.847 15.306 9.161 15.46 C 9.465 15.609 9.814 15.538 10.283 15.415 C 10.974 15.233 12.06 14.489 12.974 14.159 C 13.296 14.043 13.72 13.952 14.138 13.872 C 14.179 13.75 14.231 13.635 14.287 13.523 C 14.41 13.277 14.557 13.074 14.803 12.873 C 14.89 12.802 14.995 12.724 15.111 12.646 C 15.036 12.467 14.975 12.271 14.948 12.095 C 14.907 11.825 15.113 11.552 14.993 11.288 C 14.84 10.95 14.372 10.599 13.872 10.301 C 13.237 9.923 11.903 9.705 11.359 9.314 C 10.968 9.032 10.841 8.521 10.642 8.372 C 10.523 8.283 10.502 8.295 10.328 8.282 Z" style="fill: rgb(227, 90, 62); fill-opacity: 1; fill-rule: nonzero; stroke: none; stroke-dasharray: none; stroke-dashoffset: 0px; stroke-linecap: butt; stroke-linejoin: miter; stroke-miterlimit: 4; stroke-opacity: 1; stroke-width: 2px; paint-order: normal; vector-effect: none; opacity: 1; mix-blend-mode: normal; isolation: auto;"/>
  <path fill-rule="evenodd" clip-rule="evenodd" d="M9.49614 7.13176C9.18664 6.9549 8.80639 6.95617 8.49807 7.13509C8.18976 7.31401 8 7.64353 8 8V16C8 16.3565 8.18976 16.686 8.49807 16.8649C8.80639 17.0438 9.18664 17.0451 9.49614 16.8682L16.4961 12.8682C16.8077 12.6902 17 12.3589 17 12C17 11.6411 16.8077 11.3098 16.4961 11.1318L9.49614 7.13176ZM13.9844 12L10 14.2768V9.72318L13.9844 12Z" fill="#0F0F0F"/>
  <path fill-rule="evenodd" clip-rule="evenodd" d="M0 12C0 8.25027 0 6.3754 0.954915 5.06107C1.26331 4.6366 1.6366 4.26331 2.06107 3.95491C3.3754 3 5.25027 3 9 3H15C18.7497 3 20.6246 3 21.9389 3.95491C22.3634 4.26331 22.7367 4.6366 23.0451 5.06107C24 6.3754 24 8.25027 24 12C24 15.7497 24 17.6246 23.0451 18.9389C22.7367 19.3634 22.3634 19.7367 21.9389 20.0451C20.6246 21 18.7497 21 15 21H9C5.25027 21 3.3754 21 2.06107 20.0451C1.6366 19.7367 1.26331 19.3634 0.954915 18.9389C0 17.6246 0 15.7497 0 12ZM9 5H15C16.9194 5 18.1983 5.00275 19.1673 5.10773C20.0989 5.20866 20.504 5.38448 20.7634 5.57295C21.018 5.75799 21.242 5.98196 21.4271 6.23664C21.6155 6.49605 21.7913 6.90113 21.8923 7.83269C21.9973 8.80167 22 10.0806 22 12C22 13.9194 21.9973 15.1983 21.8923 16.1673C21.7913 17.0989 21.6155 17.504 21.4271 17.7634C21.242 18.018 21.018 18.242 20.7634 18.4271C20.504 18.6155 20.0989 18.7913 19.1673 18.8923C18.1983 18.9973 16.9194 19 15 19H9C7.08058 19 5.80167 18.9973 4.83269 18.8923C3.90113 18.7913 3.49605 18.6155 3.23664 18.4271C2.98196 18.242 2.75799 18.018 2.57295 17.7634C2.38448 17.504 2.20866 17.0989 2.10773 16.1673C2.00275 15.1983 2 13.9194 2 12C2 10.0806 2.00275 8.80167 2.10773 7.83269C2.20866 6.90113 2.38448 6.49605 2.57295 6.23664C2.75799 5.98196 2.98196 5.75799 3.23664 5.57295C3.49605 5.38448 3.90113 5.20866 4.83269 5.10773C5.80167 5.00275 7.08058 5 9 5Z" fill="#0F0F0F"/>
</svg>